<svg width="60" height="60" viewBox="0 0 60 60" fill="none" xmlns="http://www.w3.org/2000/svg">
<rect width="60" height="60" rx="12" fill="#B3D8A8"/>
<mask id="path-2-outside-1_260_529" maskUnits="userSpaceOnUse" x="6" y="21" width="48" height="21" fill="black">
<rect fill="white" x="6" y="21" width="48" height="21"/>
<path d="M9.70898 31.7734C9.70898 29.8073 9.73828 28.2969 9.79688 27.2422H9.78711L8.39062 27.0371C8.30599 26.7962 8.24089 26.5293 8.19531 26.2363C8.14974 25.9434 8.12695 25.6602 8.12695 25.3867C8.12695 25.1784 8.14323 24.9505 8.17578 24.7031C8.97656 24.4167 10.0801 24.2051 11.4863 24.0684C12.8926 23.9316 14.2467 23.8633 15.5488 23.8633C16.5449 23.8633 17.401 23.9414 18.1172 24.0977C18.8333 24.2539 19.4323 24.6087 19.9141 25.1621C20.4023 25.709 20.6465 26.5293 20.6465 27.623C20.6465 28.1699 20.5293 28.8079 20.2949 29.5371C20.0671 30.2598 19.7741 30.9661 19.416 31.6562C19.0645 32.3398 18.7096 32.8932 18.3516 33.3164C17.8242 33.9479 17.2383 34.319 16.5938 34.4297C15.526 34.599 14.3965 34.6836 13.2051 34.6836C13.179 35.3542 13.1693 35.8359 13.1758 36.1289L14.6309 36.0312C14.9303 36.5195 15.0964 37.099 15.1289 37.7695C15.1289 37.8021 14.9824 37.9421 14.6895 38.1895C14.3965 38.4368 14.0091 38.6647 13.5273 38.873C13.0521 39.0814 12.5052 39.1855 11.8867 39.1855C11.2747 39.1855 10.7865 39.0195 10.4219 38.6875C10.0638 38.349 9.88477 37.7663 9.88477 36.9395C9.77409 35.5853 9.71875 33.8665 9.71875 31.7832L9.70898 31.7734ZM15.8906 31.9395C16.0599 31.2233 16.1999 30.4648 16.3105 29.6641C16.4277 28.8568 16.4928 28.1536 16.5059 27.5547C16.4733 27.4961 16.3073 27.444 16.0078 27.3984C15.7083 27.3529 15.321 27.3301 14.8457 27.3301C14.5137 27.3301 14.1003 27.3431 13.6055 27.3691C13.5469 29.3353 13.4688 30.9141 13.3711 32.1055L15.8906 31.9395ZM21.7988 24.9863C21.7988 24.4134 21.9844 23.9479 22.3555 23.5898C22.7331 23.2318 23.332 23.0527 24.1523 23.0527C24.9727 23.0527 25.5684 23.2318 25.9395 23.5898C26.3171 23.9479 26.5059 24.4134 26.5059 24.9863C26.5059 25.3118 26.3919 25.6113 26.1641 25.8848C25.9427 26.1582 25.6497 26.3763 25.2852 26.5391C24.9206 26.6953 24.543 26.7734 24.1523 26.7734C23.7292 26.7734 23.3353 26.6823 22.9707 26.5C22.6126 26.3112 22.3262 26.0768 22.1113 25.7969C21.903 25.5169 21.7988 25.2467 21.7988 24.9863ZM21.3203 30.5723C21.2357 30.2533 21.1771 29.9635 21.1445 29.7031C21.112 29.4362 21.0957 29.1595 21.0957 28.873L21.1055 28.5996C21.2422 28.4238 21.4538 28.248 21.7402 28.0723C22.0332 27.89 22.3717 27.737 22.7559 27.6133C23.1465 27.4896 23.5501 27.4277 23.9668 27.4277C24.8783 27.4277 25.526 27.6328 25.9102 28.043C26.2943 28.4531 26.4863 29.0911 26.4863 29.957C26.4863 30.4779 26.4115 31.1582 26.2617 31.998C26.1185 32.8379 25.9427 33.6549 25.7344 34.4492C25.5326 35.237 25.3568 35.8001 25.207 36.1387L25.2266 36.1582L26.6719 35.6309C26.9323 35.8522 27.1276 36.0964 27.2578 36.3633C27.3945 36.6302 27.4824 36.9395 27.5215 37.291C27.5215 37.3366 27.3783 37.5254 27.0918 37.8574C26.8053 38.1829 26.4245 38.4889 25.9492 38.7754C25.4805 39.0553 24.9368 39.1953 24.3184 39.1953C23.6934 39.1953 23.1855 39.026 22.7949 38.6875C22.4108 38.349 22.2188 37.7695 22.2188 36.9492C22.2188 35.9922 22.2448 34.9766 22.2969 33.9023C22.349 32.8281 22.4303 31.7865 22.541 30.7773L21.3203 30.5723ZM31.3496 36.793C31.1087 35.9922 30.7572 34.9049 30.2949 33.5312C29.8327 32.1576 29.377 30.8815 28.9277 29.7031C28.485 28.5247 28.1595 27.7923 27.9512 27.5059L27.1016 27.4375C26.8607 26.7148 26.7402 26.1061 26.7402 25.6113C26.9681 25.0449 27.3099 24.6152 27.7656 24.3223C28.2214 24.0228 28.7747 23.873 29.4258 23.873C30.4284 23.873 31.1836 24.3092 31.6914 25.1816C32.0104 25.7285 32.2806 26.4154 32.502 27.2422C32.7298 28.0625 32.9512 29.0521 33.166 30.2109C33.5892 32.418 33.8496 34.2507 33.9473 35.709L34.1719 35.6699C34.3411 35.2988 34.556 34.5436 34.8164 33.4043C35.0768 32.265 35.3014 31.0898 35.4902 29.8789C35.679 28.6615 35.7734 27.7467 35.7734 27.1348L34.4844 26.9492C34.3932 26.6237 34.3281 26.3405 34.2891 26.0996C34.25 25.8522 34.2272 25.5853 34.2207 25.2988C34.2207 25.2728 34.2207 25.237 34.2207 25.1914C34.2272 25.1458 34.2272 25.0905 34.2207 25.0254C34.3639 24.8561 34.6016 24.6803 34.9336 24.498C35.2656 24.3158 35.6497 24.1628 36.0859 24.0391C36.5286 23.9154 36.9714 23.8535 37.4141 23.8535C38.306 23.8535 38.9603 24.0749 39.377 24.5176C39.7936 24.9538 40.002 25.6243 40.002 26.5293C40.002 27.1543 39.9173 27.8965 39.748 28.7559C39.5788 29.6152 39.3411 30.5039 39.0352 31.4219C38.8138 32.0859 38.4818 32.916 38.0391 33.9121C37.5964 34.9017 37.1211 35.8522 36.6133 36.7637C36.112 37.6751 35.6595 38.362 35.2559 38.8242C35.0671 38.9479 34.8392 39.0391 34.5723 39.0977C34.3053 39.1628 34.0384 39.1953 33.7715 39.1953C33.4004 39.1953 33.0195 39.1432 32.6289 39.0391C32.2448 38.9414 31.903 38.8014 31.6035 38.6191C31.3105 38.4368 31.1055 38.2285 30.9883 37.9941L31.3496 36.793ZM40.8613 33.2285C40.8613 32.0501 41.0501 31.028 41.4277 30.1621C41.8053 29.2962 42.3848 28.6257 43.166 28.1504C43.9473 27.6686 44.9271 27.4277 46.1055 27.4277C47.4076 27.4277 48.4297 27.6719 49.1719 28.1602C49.9141 28.6419 50.4316 29.3125 50.7246 30.1719C51.0241 31.0312 51.1738 32.0827 51.1738 33.3262C51.1738 34.4525 50.9753 35.4583 50.5781 36.3438C50.1875 37.2227 49.5951 37.9193 48.8008 38.4336C48.013 38.9414 47.0462 39.1953 45.9004 39.1953C44.1296 39.1953 42.847 38.6517 42.0527 37.5645C41.2585 36.4707 40.8613 35.0254 40.8613 33.2285ZM46.3008 36.334C46.6328 36.334 46.8346 36.3079 46.9062 36.2559C47.056 35.9954 47.1699 35.6276 47.248 35.1523C47.3262 34.6771 47.3652 34.1628 47.3652 33.6094C47.3652 33.1016 47.3327 32.6263 47.2676 32.1836C47.2025 31.7344 47.1113 31.3828 46.9941 31.1289C46.9225 31.0443 46.7793 30.9824 46.5645 30.9434C46.3496 30.8978 46.1152 30.875 45.8613 30.875C45.5293 30.875 45.3014 30.9108 45.1777 30.9824C44.8522 31.5423 44.6895 32.3203 44.6895 33.3164C44.6895 33.7852 44.7253 34.2637 44.7969 34.752C44.8685 35.2402 44.9596 35.6829 45.0703 36.0801C45.1484 36.1647 45.3079 36.2298 45.5488 36.2754C45.7897 36.3145 46.0404 36.334 46.3008 36.334Z"/>
</mask>
<path d="M9.70898 31.7734C9.70898 29.8073 9.73828 28.2969 9.79688 27.2422H9.78711L8.39062 27.0371C8.30599 26.7962 8.24089 26.5293 8.19531 26.2363C8.14974 25.9434 8.12695 25.6602 8.12695 25.3867C8.12695 25.1784 8.14323 24.9505 8.17578 24.7031C8.97656 24.4167 10.0801 24.2051 11.4863 24.0684C12.8926 23.9316 14.2467 23.8633 15.5488 23.8633C16.5449 23.8633 17.401 23.9414 18.1172 24.0977C18.8333 24.2539 19.4323 24.6087 19.9141 25.1621C20.4023 25.709 20.6465 26.5293 20.6465 27.623C20.6465 28.1699 20.5293 28.8079 20.2949 29.5371C20.0671 30.2598 19.7741 30.9661 19.416 31.6562C19.0645 32.3398 18.7096 32.8932 18.3516 33.3164C17.8242 33.9479 17.2383 34.319 16.5938 34.4297C15.526 34.599 14.3965 34.6836 13.2051 34.6836C13.179 35.3542 13.1693 35.8359 13.1758 36.1289L14.6309 36.0312C14.9303 36.5195 15.0964 37.099 15.1289 37.7695C15.1289 37.8021 14.9824 37.9421 14.6895 38.1895C14.3965 38.4368 14.0091 38.6647 13.5273 38.873C13.0521 39.0814 12.5052 39.1855 11.8867 39.1855C11.2747 39.1855 10.7865 39.0195 10.4219 38.6875C10.0638 38.349 9.88477 37.7663 9.88477 36.9395C9.77409 35.5853 9.71875 33.8665 9.71875 31.7832L9.70898 31.7734ZM15.8906 31.9395C16.0599 31.2233 16.1999 30.4648 16.3105 29.6641C16.4277 28.8568 16.4928 28.1536 16.5059 27.5547C16.4733 27.4961 16.3073 27.444 16.0078 27.3984C15.7083 27.3529 15.321 27.3301 14.8457 27.3301C14.5137 27.3301 14.1003 27.3431 13.6055 27.3691C13.5469 29.3353 13.4688 30.9141 13.3711 32.1055L15.8906 31.9395ZM21.7988 24.9863C21.7988 24.4134 21.9844 23.9479 22.3555 23.5898C22.7331 23.2318 23.332 23.0527 24.1523 23.0527C24.9727 23.0527 25.5684 23.2318 25.9395 23.5898C26.3171 23.9479 26.5059 24.4134 26.5059 24.9863C26.5059 25.3118 26.3919 25.6113 26.1641 25.8848C25.9427 26.1582 25.6497 26.3763 25.2852 26.5391C24.9206 26.6953 24.543 26.7734 24.1523 26.7734C23.7292 26.7734 23.3353 26.6823 22.9707 26.5C22.6126 26.3112 22.3262 26.0768 22.1113 25.7969C21.903 25.5169 21.7988 25.2467 21.7988 24.9863ZM21.3203 30.5723C21.2357 30.2533 21.1771 29.9635 21.1445 29.7031C21.112 29.4362 21.0957 29.1595 21.0957 28.873L21.1055 28.5996C21.2422 28.4238 21.4538 28.248 21.7402 28.0723C22.0332 27.89 22.3717 27.737 22.7559 27.6133C23.1465 27.4896 23.5501 27.4277 23.9668 27.4277C24.8783 27.4277 25.526 27.6328 25.9102 28.043C26.2943 28.4531 26.4863 29.0911 26.4863 29.957C26.4863 30.4779 26.4115 31.1582 26.2617 31.998C26.1185 32.8379 25.9427 33.6549 25.7344 34.4492C25.5326 35.237 25.3568 35.8001 25.207 36.1387L25.2266 36.1582L26.6719 35.6309C26.9323 35.8522 27.1276 36.0964 27.2578 36.3633C27.3945 36.6302 27.4824 36.9395 27.5215 37.291C27.5215 37.3366 27.3783 37.5254 27.0918 37.8574C26.8053 38.1829 26.4245 38.4889 25.9492 38.7754C25.4805 39.0553 24.9368 39.1953 24.3184 39.1953C23.6934 39.1953 23.1855 39.026 22.7949 38.6875C22.4108 38.349 22.2188 37.7695 22.2188 36.9492C22.2188 35.9922 22.2448 34.9766 22.2969 33.9023C22.349 32.8281 22.4303 31.7865 22.541 30.7773L21.3203 30.5723ZM31.3496 36.793C31.1087 35.9922 30.7572 34.9049 30.2949 33.5312C29.8327 32.1576 29.377 30.8815 28.9277 29.7031C28.485 28.5247 28.1595 27.7923 27.9512 27.5059L27.1016 27.4375C26.8607 26.7148 26.7402 26.1061 26.7402 25.6113C26.9681 25.0449 27.3099 24.6152 27.7656 24.3223C28.2214 24.0228 28.7747 23.873 29.4258 23.873C30.4284 23.873 31.1836 24.3092 31.6914 25.1816C32.0104 25.7285 32.2806 26.4154 32.502 27.2422C32.7298 28.0625 32.9512 29.0521 33.166 30.2109C33.5892 32.418 33.8496 34.2507 33.9473 35.709L34.1719 35.6699C34.3411 35.2988 34.556 34.5436 34.8164 33.4043C35.0768 32.265 35.3014 31.0898 35.4902 29.8789C35.679 28.6615 35.7734 27.7467 35.7734 27.1348L34.4844 26.9492C34.3932 26.6237 34.3281 26.3405 34.2891 26.0996C34.25 25.8522 34.2272 25.5853 34.2207 25.2988C34.2207 25.2728 34.2207 25.237 34.2207 25.1914C34.2272 25.1458 34.2272 25.0905 34.2207 25.0254C34.3639 24.8561 34.6016 24.6803 34.9336 24.498C35.2656 24.3158 35.6497 24.1628 36.0859 24.0391C36.5286 23.9154 36.9714 23.8535 37.4141 23.8535C38.306 23.8535 38.9603 24.0749 39.377 24.5176C39.7936 24.9538 40.002 25.6243 40.002 26.5293C40.002 27.1543 39.9173 27.8965 39.748 28.7559C39.5788 29.6152 39.3411 30.5039 39.0352 31.4219C38.8138 32.0859 38.4818 32.916 38.0391 33.9121C37.5964 34.9017 37.1211 35.8522 36.6133 36.7637C36.112 37.6751 35.6595 38.362 35.2559 38.8242C35.0671 38.9479 34.8392 39.0391 34.5723 39.0977C34.3053 39.1628 34.0384 39.1953 33.7715 39.1953C33.4004 39.1953 33.0195 39.1432 32.6289 39.0391C32.2448 38.9414 31.903 38.8014 31.6035 38.6191C31.3105 38.4368 31.1055 38.2285 30.9883 37.9941L31.3496 36.793ZM40.8613 33.2285C40.8613 32.0501 41.0501 31.028 41.4277 30.1621C41.8053 29.2962 42.3848 28.6257 43.166 28.1504C43.9473 27.6686 44.9271 27.4277 46.1055 27.4277C47.4076 27.4277 48.4297 27.6719 49.1719 28.1602C49.9141 28.6419 50.4316 29.3125 50.7246 30.1719C51.0241 31.0312 51.1738 32.0827 51.1738 33.3262C51.1738 34.4525 50.9753 35.4583 50.5781 36.3438C50.1875 37.2227 49.5951 37.9193 48.8008 38.4336C48.013 38.9414 47.0462 39.1953 45.9004 39.1953C44.1296 39.1953 42.847 38.6517 42.0527 37.5645C41.2585 36.4707 40.8613 35.0254 40.8613 33.2285ZM46.3008 36.334C46.6328 36.334 46.8346 36.3079 46.9062 36.2559C47.056 35.9954 47.1699 35.6276 47.248 35.1523C47.3262 34.6771 47.3652 34.1628 47.3652 33.6094C47.3652 33.1016 47.3327 32.6263 47.2676 32.1836C47.2025 31.7344 47.1113 31.3828 46.9941 31.1289C46.9225 31.0443 46.7793 30.9824 46.5645 30.9434C46.3496 30.8978 46.1152 30.875 45.8613 30.875C45.5293 30.875 45.3014 30.9108 45.1777 30.9824C44.8522 31.5423 44.6895 32.3203 44.6895 33.3164C44.6895 33.7852 44.7253 34.2637 44.7969 34.752C44.8685 35.2402 44.9596 35.6829 45.0703 36.0801C45.1484 36.1647 45.3079 36.2298 45.5488 36.2754C45.7897 36.3145 46.0404 36.334 46.3008 36.334Z" fill="#FBFFE4"/>
<path d="M9.70898 31.7734H7.70898V32.6019L8.29477 33.1877L9.70898 31.7734ZM9.79688 27.2422L11.7938 27.3531L11.9111 25.2422H9.79688V27.2422ZM9.78711 27.2422L9.49652 29.221L9.64104 29.2422H9.78711V27.2422ZM8.39062 27.0371L6.5037 27.7001L6.90432 28.8403L8.10004 29.0159L8.39062 27.0371ZM8.19531 26.2363L6.21908 26.5437L8.19531 26.2363ZM8.17578 24.7031L7.50214 22.82L6.3522 23.2313L6.19287 24.4422L8.17578 24.7031ZM19.9141 25.1621L18.4056 26.4753L18.4138 26.4848L18.4222 26.4941L19.9141 25.1621ZM20.2949 29.5371L18.3908 28.9251L18.3875 28.9357L20.2949 29.5371ZM19.416 31.6562L17.6407 30.7351L17.6374 30.7416L19.416 31.6562ZM18.3516 33.3164L16.8248 32.0245L16.8164 32.0345L18.3516 33.3164ZM16.5938 34.4297L16.9069 36.405L16.9196 36.403L16.9322 36.4008L16.5938 34.4297ZM13.2051 34.6836V32.6836H11.2812L11.2066 34.606L13.2051 34.6836ZM13.1758 36.1289L11.1763 36.1733L11.2227 38.2645L13.3097 38.1244L13.1758 36.1289ZM14.6309 36.0312L16.3357 34.9856L15.7035 33.9548L14.4969 34.0357L14.6309 36.0312ZM15.1289 37.7695H17.1289V37.721L17.1266 37.6726L15.1289 37.7695ZM14.6895 38.1895L13.3991 36.6614L14.6895 38.1895ZM13.5273 38.873L12.7335 37.0373L12.7244 37.0413L13.5273 38.873ZM10.4219 38.6875L9.04785 40.1408L9.06142 40.1536L9.07522 40.1662L10.4219 38.6875ZM9.88477 36.9395H11.8848V36.8579L11.8781 36.7765L9.88477 36.9395ZM9.71875 31.7832H11.7188V30.9548L11.133 30.369L9.71875 31.7832ZM15.8906 31.9395L16.0221 33.9351L17.497 33.8379L17.837 32.3995L15.8906 31.9395ZM16.3105 29.6641L14.3312 29.3767L14.3294 29.3902L16.3105 29.6641ZM16.5059 27.5547L18.5054 27.5982L18.5172 27.0568L18.2542 26.5834L16.5059 27.5547ZM13.6055 27.3691L13.5004 25.3719L11.6612 25.4687L11.6064 27.3096L13.6055 27.3691ZM13.3711 32.1055L11.3778 31.9421L11.1883 34.2536L13.5026 34.1011L13.3711 32.1055ZM9.70898 31.7734H11.709C11.709 29.8186 11.7383 28.352 11.7938 27.3531L9.79688 27.2422L7.79995 27.1312C7.73826 28.2418 7.70898 29.7959 7.70898 31.7734H9.70898ZM9.79688 27.2422V25.2422H9.78711V27.2422V29.2422H9.79688V27.2422ZM9.78711 27.2422L10.0777 25.2634L8.68121 25.0583L8.39062 27.0371L8.10004 29.0159L9.49652 29.221L9.78711 27.2422ZM8.39062 27.0371L10.2775 26.3741C10.2394 26.2655 10.2012 26.1197 10.1715 25.9289L8.19531 26.2363L6.21908 26.5437C6.28054 26.9389 6.37261 27.327 6.5037 27.7001L8.39062 27.0371ZM8.19531 26.2363L10.1715 25.9289C10.1405 25.7292 10.127 25.549 10.127 25.3867H8.12695H6.12695C6.12695 25.7713 6.159 26.1575 6.21908 26.5437L8.19531 26.2363ZM8.12695 25.3867H10.127C10.127 25.2807 10.1354 25.1412 10.1587 24.964L8.17578 24.7031L6.19287 24.4422C6.15109 24.7598 6.12695 25.0761 6.12695 25.3867H8.12695ZM8.17578 24.7031L8.84942 26.5863C9.42699 26.3797 10.3449 26.1888 11.6799 26.059L11.4863 24.0684L11.2928 22.0777C9.81525 22.2214 8.52613 22.4537 7.50214 22.82L8.17578 24.7031ZM11.4863 24.0684L11.6799 26.059C13.0272 25.928 14.3165 25.8633 15.5488 25.8633V23.8633V21.8633C14.1769 21.8633 12.758 21.9353 11.2928 22.0777L11.4863 24.0684ZM15.5488 23.8633V25.8633C16.4489 25.8633 17.1545 25.9347 17.6909 26.0517L18.1172 24.0977L18.5435 22.1436C17.6476 21.9482 16.6409 21.8633 15.5488 21.8633V23.8633ZM18.1172 24.0977L17.6909 26.0517C17.9863 26.1162 18.206 26.246 18.4056 26.4753L19.9141 25.1621L21.4225 23.8489C20.6586 22.9714 19.6803 22.3917 18.5435 22.1436L18.1172 24.0977ZM19.9141 25.1621L18.4222 26.4941C18.4546 26.5304 18.6465 26.7852 18.6465 27.623H20.6465H22.6465C22.6465 26.2734 22.3501 24.8876 21.4059 23.8301L19.9141 25.1621ZM20.6465 27.623H18.6465C18.6465 27.8975 18.5851 28.3209 18.3909 28.9251L20.2949 29.5371L22.199 30.1491C22.4735 29.295 22.6465 28.4424 22.6465 27.623H20.6465ZM20.2949 29.5371L18.3875 28.9357C18.1953 29.5453 17.947 30.1449 17.6408 30.7351L19.416 31.6562L21.1913 32.5774C21.6012 31.7874 21.9388 30.9742 22.2023 30.1385L20.2949 29.5371ZM19.416 31.6562L17.6374 30.7416C17.3307 31.338 17.0554 31.7519 16.8248 32.0245L18.3516 33.3164L19.8783 34.6083C20.3638 34.0345 20.7982 33.3417 21.1946 32.5709L19.416 31.6562ZM18.3516 33.3164L16.8164 32.0345C16.5126 32.3983 16.3208 32.4473 16.2553 32.4585L16.5938 34.4297L16.9322 36.4008C18.1557 36.1907 19.1358 35.4975 19.8867 34.5983L18.3516 33.3164ZM16.5938 34.4297L16.2806 32.4544C15.3263 32.6056 14.3021 32.6836 13.2051 32.6836V34.6836V36.6836C14.4909 36.6836 15.7258 36.5923 16.9069 36.405L16.5938 34.4297ZM13.2051 34.6836L11.2066 34.606C11.1804 35.2791 11.1683 35.814 11.1763 36.1733L13.1758 36.1289L15.1753 36.0845C15.1703 35.8579 15.1776 35.4293 15.2036 34.7612L13.2051 34.6836ZM13.1758 36.1289L13.3097 38.1244L14.7648 38.0268L14.6309 36.0312L14.4969 34.0357L13.0419 34.1334L13.1758 36.1289ZM14.6309 36.0312L12.926 37.0769C13.0216 37.2329 13.1122 37.4737 13.1313 37.8665L15.1289 37.7695L17.1266 37.6726C17.0805 36.7242 16.839 35.8062 16.3357 34.9856L14.6309 36.0312ZM15.1289 37.7695H13.1289C13.1289 37.4218 13.2203 37.1594 13.2691 37.0369C13.3242 36.8987 13.3836 36.7955 13.4195 36.7373C13.4902 36.6226 13.5554 36.5449 13.5769 36.5196C13.6254 36.4624 13.6563 36.4348 13.6373 36.4529C13.6092 36.4799 13.5366 36.5453 13.3991 36.6614L14.6895 38.1895L15.9798 39.7175C16.1353 39.5862 16.2825 39.458 16.4008 39.3449C16.4551 39.293 16.5409 39.2089 16.626 39.1085C16.6658 39.0618 16.7447 38.9658 16.8246 38.8363C16.8473 38.7993 17.1289 38.377 17.1289 37.7695H15.1289ZM14.6895 38.1895L13.3991 36.6614C13.2993 36.7456 13.0969 36.8802 12.7335 37.0373L13.5273 38.873L14.3212 40.7088C14.9213 40.4492 15.4936 40.1281 15.9798 39.7175L14.6895 38.1895ZM13.5273 38.873L12.7244 37.0413C12.546 37.1195 12.281 37.1855 11.8867 37.1855V39.1855V41.1855C12.7294 41.1855 13.5581 41.0433 14.3303 40.7048L13.5273 38.873ZM11.8867 39.1855V37.1855C11.7599 37.1855 11.7076 37.1683 11.7053 37.1675C11.7045 37.1672 11.713 37.1701 11.7271 37.1783C11.7414 37.1867 11.7559 37.1973 11.7685 37.2088L10.4219 38.6875L9.07522 40.1662C9.89132 40.9094 10.9019 41.1855 11.8867 41.1855V39.1855ZM10.4219 38.6875L11.7959 37.2342C11.9209 37.3523 11.9427 37.4477 11.9308 37.4092C11.9164 37.3622 11.8848 37.2196 11.8848 36.9395H9.88477H7.88477C7.88477 37.9617 8.09037 39.2355 9.04785 40.1408L10.4219 38.6875ZM9.88477 36.9395L11.8781 36.7765C11.7735 35.497 11.7188 33.8375 11.7188 31.7832H9.71875H7.71875C7.71875 33.8956 7.77464 35.6736 7.89141 37.1024L9.88477 36.9395ZM9.71875 31.7832L11.133 30.369L11.1232 30.3592L9.70898 31.7734L8.29477 33.1877L8.30454 33.1974L9.71875 31.7832ZM15.8906 31.9395L17.837 32.3995C18.0221 31.6162 18.1732 30.7952 18.2917 29.9379L16.3105 29.6641L14.3294 29.3902C14.2265 30.1345 14.0977 30.8304 13.9443 31.4794L15.8906 31.9395ZM16.3105 29.6641L18.2898 29.9514C18.4148 29.09 18.4901 28.3019 18.5054 27.5982L16.5059 27.5547L14.5063 27.5112C14.4956 28.0054 14.4406 28.6235 14.3313 29.3768L16.3105 29.6641ZM16.5059 27.5547L18.2542 26.5834C17.9791 26.0882 17.5798 25.8484 17.4301 25.765C17.241 25.6596 17.0665 25.5982 16.9556 25.5634C16.7295 25.4925 16.4971 25.4499 16.3087 25.4212L16.0078 27.3984L15.7069 29.3757C15.818 29.3926 15.8183 29.3988 15.7583 29.38C15.7304 29.3712 15.6222 29.3367 15.4827 29.2589C15.4099 29.2184 15.3002 29.1504 15.1797 29.0462C15.0608 28.9436 14.8958 28.7749 14.7575 28.526L16.5059 27.5547ZM16.0078 27.3984L16.3087 25.4212C15.8703 25.3545 15.3719 25.3301 14.8457 25.3301V27.3301V29.3301C15.27 29.3301 15.5464 29.3512 15.7069 29.3757L16.0078 27.3984ZM14.8457 27.3301V25.3301C14.4661 25.3301 14.0149 25.3448 13.5004 25.3719L13.6055 27.3691L13.7106 29.3664C14.1856 29.3414 14.5612 29.3301 14.8457 29.3301V27.3301ZM13.6055 27.3691L11.6064 27.3096C11.5482 29.26 11.4714 30.8 11.3778 31.9421L13.3711 32.1055L15.3644 32.2689C15.4661 31.0281 15.5455 29.4105 15.6046 27.4287L13.6055 27.3691ZM13.3711 32.1055L13.5026 34.1011L16.0221 33.9351L15.8906 31.9395L15.7591 29.9438L13.2396 30.1098L13.3711 32.1055ZM22.3555 23.5898L20.9793 22.1386L20.973 22.1446L20.9667 22.1506L22.3555 23.5898ZM25.9395 23.5898L24.5507 25.0291L24.557 25.0351L24.5633 25.0411L25.9395 23.5898ZM26.1641 25.8848L24.6276 24.6044L24.6185 24.6153L24.6096 24.6264L26.1641 25.8848ZM25.2852 26.5391L26.073 28.3774L26.0868 28.3714L26.1005 28.3653L25.2852 26.5391ZM22.9707 26.5L22.0379 28.2691L22.057 28.2792L22.0763 28.2889L22.9707 26.5ZM22.1113 25.7969L20.5069 26.9909L20.5157 27.0028L20.5247 27.0145L22.1113 25.7969ZM21.3203 30.5723L19.3872 31.0851L19.7177 32.3311L20.989 32.5446L21.3203 30.5723ZM21.1445 29.7031L19.1592 29.9452L19.16 29.9512L21.1445 29.7031ZM21.0957 28.873L19.097 28.8017L19.0957 28.8373V28.873H21.0957ZM21.1055 28.5996L19.5268 27.3717L19.1298 27.8821L19.1067 28.5282L21.1055 28.5996ZM21.7402 28.0723L22.7863 29.7769L22.7968 29.7704L21.7402 28.0723ZM22.7559 27.6133L22.1521 25.7066L22.1428 25.7096L22.7559 27.6133ZM25.9102 28.043L24.4504 29.4101L25.9102 28.043ZM26.2617 31.998L24.2928 31.647L24.2914 31.6544L24.2902 31.6618L26.2617 31.998ZM25.7344 34.4492L23.7998 33.9418L23.7969 33.9529L25.7344 34.4492ZM25.207 36.1387L23.378 35.3297L22.8234 36.5835L23.7928 37.5529L25.207 36.1387ZM25.2266 36.1582L23.8123 37.5724L24.7141 38.4742L25.9121 38.037L25.2266 36.1582ZM26.6719 35.6309L27.9672 34.107L27.0801 33.353L25.9864 33.752L26.6719 35.6309ZM27.2578 36.3633L25.4603 37.2401L25.4688 37.2577L25.4777 37.275L27.2578 36.3633ZM27.5215 37.291H29.5215V37.1802L29.5093 37.0702L27.5215 37.291ZM27.0918 37.8574L28.5932 39.1787L28.5997 39.1713L28.6061 39.1639L27.0918 37.8574ZM25.9492 38.7754L26.9747 40.4925L26.9817 40.4883L25.9492 38.7754ZM22.7949 38.6875L21.4725 40.1879L21.4788 40.1934L21.4851 40.1989L22.7949 38.6875ZM22.541 30.7773L24.5291 30.9954L24.735 29.1179L22.8724 28.805L22.541 30.7773ZM21.7988 24.9863H23.7988C23.7988 24.951 23.8017 24.9328 23.8024 24.9286C23.8031 24.9248 23.802 24.9325 23.7958 24.9481C23.7895 24.9639 23.7804 24.9816 23.769 24.9985C23.7576 25.0153 23.748 25.0254 23.7442 25.0291L22.3555 23.5898L20.9667 22.1506C20.1597 22.9293 19.7988 23.937 19.7988 24.9863H21.7988ZM22.3555 23.5898L23.7317 25.0411C23.6514 25.1172 23.6018 25.1208 23.6607 25.1032C23.7268 25.0835 23.8794 25.0527 24.1523 25.0527V23.0527V21.0527C23.1035 21.0527 21.8929 21.2723 20.9793 22.1386L22.3555 23.5898ZM24.1523 23.0527V25.0527C24.4257 25.0527 24.5762 25.0836 24.6387 25.1024C24.6938 25.1189 24.637 25.1124 24.5507 25.0291L25.9395 23.5898L27.3282 22.1506C26.4161 21.2705 25.1971 21.0527 24.1523 21.0527V23.0527ZM25.9395 23.5898L24.5633 25.0411C24.5604 25.0384 24.551 25.0287 24.5394 25.0119C24.5276 24.9948 24.5179 24.9764 24.5109 24.9592C24.504 24.9423 24.5024 24.9329 24.5027 24.9346C24.5031 24.9368 24.5059 24.953 24.5059 24.9863H26.5059H28.5059C28.5059 23.9259 28.1339 22.9146 27.3156 22.1386L25.9395 23.5898ZM26.5059 24.9863H24.5059C24.5059 24.91 24.5203 24.825 24.5511 24.7439C24.5811 24.6652 24.6155 24.619 24.6276 24.6044L26.1641 25.8848L27.7005 27.1651C28.1979 26.5683 28.5059 25.8245 28.5059 24.9863H26.5059ZM26.1641 25.8848L24.6096 24.6264C24.608 24.6283 24.6016 24.6361 24.584 24.6492C24.5657 24.6628 24.5304 24.6858 24.4699 24.7128L25.2852 26.5391L26.1005 28.3653C26.7136 28.0916 27.2737 27.6927 27.7186 27.1432L26.1641 25.8848ZM25.2852 26.5391L24.4973 24.7008C24.3777 24.752 24.2679 24.7734 24.1523 24.7734V26.7734V28.7734C24.8181 28.7734 25.4634 28.6386 26.073 28.3774L25.2852 26.5391ZM24.1523 26.7734V24.7734C24.0274 24.7734 23.9413 24.7492 23.8651 24.7111L22.9707 26.5L22.0763 28.2889C22.7293 28.6154 23.4309 28.7734 24.1523 28.7734V26.7734ZM22.9707 26.5L23.9035 24.7309C23.7632 24.6568 23.7131 24.599 23.6979 24.5792L22.1113 25.7969L20.5247 27.0145C20.9392 27.5547 21.4621 27.9655 22.0379 28.2691L22.9707 26.5ZM22.1113 25.7969L23.7158 24.6029C23.6778 24.5518 23.7988 24.6913 23.7988 24.9863H21.7988H19.7988C19.7988 25.8022 20.1282 26.4821 20.5069 26.9909L22.1113 25.7969ZM21.3203 30.5723L23.2534 30.0594C23.1863 29.8063 23.1481 29.6069 23.1291 29.4551L21.1445 29.7031L19.16 29.9512C19.2061 30.3202 19.2851 30.7002 19.3872 31.0851L21.3203 30.5723ZM21.1445 29.7031L23.1298 29.461C23.1077 29.2794 23.0957 29.0838 23.0957 28.873H21.0957H19.0957C19.0957 29.2352 19.1163 29.593 19.1592 29.9452L21.1445 29.7031ZM21.0957 28.873L23.0944 28.9444L23.1042 28.671L21.1055 28.5996L19.1067 28.5282L19.097 28.8017L21.0957 28.873ZM21.1055 28.5996L22.6842 29.8275C22.646 29.8766 22.6252 29.8905 22.6447 29.8743C22.6633 29.8589 22.7071 29.8255 22.7863 29.7769L21.7402 28.0723L20.6942 26.3676C20.2967 26.6115 19.866 26.9355 19.5268 27.3717L21.1055 28.5996ZM21.7402 28.0723L22.7968 29.7704C22.9298 29.6876 23.1149 29.5988 23.3689 29.517L22.7559 27.6133L22.1428 25.7096C21.6285 25.8752 21.1366 26.0923 20.6836 26.3742L21.7402 28.0723ZM22.7559 27.6133L23.3596 29.52C23.5517 29.4592 23.7515 29.4277 23.9668 29.4277V27.4277V25.4277C23.3488 25.4277 22.7413 25.52 22.1521 25.7066L22.7559 27.6133ZM23.9668 27.4277V29.4277C24.2829 29.4277 24.4577 29.4646 24.5326 29.4883C24.5977 29.5089 24.5371 29.5027 24.4504 29.4101L25.9102 28.043L27.37 26.6759C26.4285 25.6706 25.0989 25.4277 23.9668 25.4277V27.4277ZM25.9102 28.043L24.4504 29.4101C24.3961 29.3521 24.4036 29.3273 24.4272 29.4056C24.453 29.4913 24.4863 29.6643 24.4863 29.957H26.4863H28.4863C28.4863 28.8493 28.248 27.6134 27.37 26.6759L25.9102 28.043ZM26.4863 29.957H24.4863C24.4863 30.3098 24.4331 30.8599 24.2928 31.647L26.2617 31.998L28.2307 32.3491C28.3898 31.4566 28.4863 30.6459 28.4863 29.957H26.4863ZM26.2617 31.998L24.2902 31.6618C24.1564 32.4462 23.9928 33.2061 23.7998 33.9418L25.7344 34.4492L27.6689 34.9566C27.8926 34.1038 28.0806 33.2296 28.2333 32.3343L26.2617 31.998ZM25.7344 34.4492L23.7969 33.9529C23.5981 34.7292 23.4557 35.1539 23.378 35.3297L25.207 36.1387L27.0361 36.9477C27.2579 36.4463 27.467 35.7448 27.6718 34.9456L25.7344 34.4492ZM25.207 36.1387L23.7928 37.5529L23.8123 37.5724L25.2266 36.1582L26.6408 34.744L26.6212 34.7245L25.207 36.1387ZM25.2266 36.1582L25.9121 38.037L27.3574 37.5097L26.6719 35.6309L25.9864 33.752L24.541 34.2794L25.2266 36.1582ZM26.6719 35.6309L25.3766 37.1547C25.4183 37.1902 25.4411 37.2158 25.4519 37.2294C25.4623 37.2424 25.4631 37.2459 25.4603 37.2401L27.2578 36.3633L29.0553 35.4864C28.7873 34.9368 28.4063 34.4803 27.9672 34.107L26.6719 35.6309ZM27.2578 36.3633L25.4777 37.275C25.486 37.2912 25.5167 37.3589 25.5337 37.5119L27.5215 37.291L29.5093 37.0702C29.4481 36.52 29.303 35.9692 29.0379 35.4515L27.2578 36.3633ZM27.5215 37.291H25.5215C25.5215 37.0485 25.5663 36.8596 25.5949 36.7583C25.626 36.648 25.6609 36.5622 25.6841 36.5093C25.7295 36.4063 25.7726 36.3345 25.7881 36.3092C25.8212 36.2549 25.8405 36.2319 25.8207 36.258C25.7873 36.3021 25.7121 36.3949 25.5775 36.551L27.0918 37.8574L28.6061 39.1639C28.7579 38.9879 28.8976 38.8203 29.0074 38.6756C29.0593 38.6073 29.1322 38.5078 29.2012 38.395C29.2346 38.3403 29.2911 38.2437 29.3454 38.1203C29.3754 38.052 29.5215 37.7286 29.5215 37.291H27.5215ZM27.0918 37.8574L25.5904 36.5362C25.471 36.6718 25.2631 36.8537 24.9168 37.0625L25.9492 38.7754L26.9817 40.4883C27.5859 40.1241 28.1397 39.6941 28.5932 39.1787L27.0918 37.8574ZM25.9492 38.7754L24.9237 37.0583C24.8045 37.1295 24.6247 37.1953 24.3184 37.1953V39.1953V41.1953C25.249 41.1953 26.1564 40.9812 26.9747 40.4925L25.9492 38.7754ZM24.3184 39.1953V37.1953C24.1856 37.1953 24.1203 37.1773 24.1012 37.171C24.0872 37.1663 24.0947 37.1674 24.1048 37.1761L22.7949 38.6875L21.4851 40.1989C22.3116 40.9152 23.3174 41.1953 24.3184 41.1953V39.1953ZM22.7949 38.6875L24.1173 37.1871C24.1737 37.2368 24.2126 37.2866 24.2368 37.3252C24.2601 37.3622 24.265 37.3811 24.2612 37.3698C24.2511 37.3393 24.2188 37.2142 24.2188 36.9492H22.2188H20.2188C20.2188 38.0045 20.4558 39.2918 21.4725 40.1879L22.7949 38.6875ZM22.2188 36.9492H24.2188C24.2188 36.0281 24.2438 35.045 24.2945 33.9992L22.2969 33.9023L20.2992 33.8055C20.2458 34.9081 20.2188 35.9562 20.2188 36.9492H22.2188ZM22.2969 33.9023L24.2945 33.9992C24.3448 32.9631 24.4231 31.9619 24.5291 30.9954L22.541 30.7773L20.5529 30.5593C20.4376 31.611 20.3532 32.6932 20.2992 33.8055L22.2969 33.9023ZM22.541 30.7773L22.8724 28.805L21.6517 28.5999L21.3203 30.5723L20.989 32.5446L22.2097 32.7497L22.541 30.7773ZM31.3496 36.793L33.2648 37.3691L33.4381 36.793L33.2648 36.2168L31.3496 36.793ZM28.9277 29.7031L27.0555 30.4065L27.0589 30.4155L28.9277 29.7031ZM27.9512 27.5059L29.5686 26.3295L29.0279 25.586L28.1116 25.5123L27.9512 27.5059ZM27.1016 27.4375L25.2042 28.07L25.6225 29.325L26.9412 29.4311L27.1016 27.4375ZM26.7402 25.6113L24.8848 24.8649L24.7402 25.2241V25.6113H26.7402ZM27.7656 24.3223L28.8471 26.0046L28.8556 25.9992L28.864 25.9937L27.7656 24.3223ZM31.6914 25.1816L29.9629 26.1878L29.9638 26.1894L31.6914 25.1816ZM32.502 27.2422L30.57 27.7594L30.5724 27.7685L30.5749 27.7775L32.502 27.2422ZM33.166 30.2109L31.1995 30.5755L31.2018 30.5876L33.166 30.2109ZM33.9473 35.709L31.9517 35.8426L32.1002 38.0602L34.2899 37.6794L33.9473 35.709ZM34.1719 35.6699L34.5146 37.6403L35.5538 37.4596L35.9915 36.4999L34.1719 35.6699ZM34.8164 33.4043L32.8667 32.9586L34.8164 33.4043ZM35.4902 29.8789L37.4664 30.187L37.4666 30.1854L35.4902 29.8789ZM35.7734 27.1348H37.7734V25.402L36.0584 25.1552L35.7734 27.1348ZM34.4844 26.9492L32.5584 27.4885L32.9098 28.7432L34.1994 28.9288L34.4844 26.9492ZM34.2891 26.0996L32.3135 26.4115L32.3149 26.4198L34.2891 26.0996ZM34.2207 25.2988H32.2207V25.3216L32.2212 25.3443L34.2207 25.2988ZM34.2207 25.1914L32.2408 24.9086L32.2207 25.0493V25.1914H34.2207ZM34.2207 25.0254L32.6939 23.7335L32.1463 24.3807L32.2306 25.2244L34.2207 25.0254ZM36.0859 24.0391L35.5477 22.1128L35.5403 22.1149L36.0859 24.0391ZM39.377 24.5176L37.9206 25.8883L37.9256 25.8937L37.9307 25.899L39.377 24.5176ZM39.0352 31.4219L40.9325 32.0543L39.0352 31.4219ZM38.0391 33.9121L39.8647 34.7288L39.8667 34.7244L38.0391 33.9121ZM36.6133 36.7637L34.8661 35.7903L34.8608 35.7998L36.6133 36.7637ZM35.2559 38.8242L36.3519 40.4971L36.5817 40.3466L36.7623 40.1397L35.2559 38.8242ZM34.5723 39.0977L34.1435 37.1442L34.1208 37.1491L34.0984 37.1546L34.5723 39.0977ZM32.6289 39.0391L33.1442 37.1066L33.133 37.1036L33.1217 37.1007L32.6289 39.0391ZM31.6035 38.6191L30.5469 40.3173L30.5552 40.3224L30.5636 40.3275L31.6035 38.6191ZM30.9883 37.9941L29.0731 37.418L28.8443 38.1784L29.1994 38.8886L30.9883 37.9941ZM31.3496 36.793L33.2648 36.2168C33.0148 35.3858 32.6554 34.2751 32.1905 32.8934L30.2949 33.5312L28.3994 34.1691C28.8589 35.5348 29.2026 36.5986 29.4344 37.3691L31.3496 36.793ZM30.2949 33.5312L32.1905 32.8934C31.721 31.4983 31.2564 30.1971 30.7965 28.9907L28.9277 29.7031L27.0589 30.4155C27.4975 31.5659 27.9443 32.8168 28.3994 34.1691L30.2949 33.5312ZM28.9277 29.7031L30.8 28.9997C30.5716 28.3919 30.3642 27.874 30.1792 27.4577C30.0125 27.0826 29.8074 26.6579 29.5686 26.3295L27.9512 27.5059L26.3337 28.6822C26.3032 28.6403 26.3651 28.725 26.5239 29.0823C26.6645 29.3985 26.8411 29.8359 27.0555 30.4065L28.9277 29.7031ZM27.9512 27.5059L28.1116 25.5123L27.262 25.4439L27.1016 27.4375L26.9412 29.4311L27.7908 29.4994L27.9512 27.5059ZM27.1016 27.4375L28.9989 26.805C28.7935 26.1886 28.7402 25.808 28.7402 25.6113H26.7402H24.7402C24.7402 26.4043 24.9279 27.2411 25.2042 28.07L27.1016 27.4375ZM26.7402 25.6113L28.5957 26.3578C28.6893 26.1252 28.7836 26.0455 28.8471 26.0046L27.7656 24.3223L26.6841 22.6399C25.8362 23.185 25.2469 23.9646 24.8848 24.8649L26.7402 25.6113ZM27.7656 24.3223L28.864 25.9937C28.9347 25.9472 29.0883 25.873 29.4258 25.873V23.873V21.873C28.4612 21.873 27.508 22.0984 26.6673 22.6509L27.7656 24.3223ZM29.4258 23.873V25.873C29.6292 25.873 29.7134 25.9145 29.7438 25.9321C29.7749 25.95 29.8564 26.0049 29.9629 26.1878L31.6914 25.1816L33.4199 24.1755C32.5569 22.693 31.1464 21.873 29.4258 21.873V23.873ZM31.6914 25.1816L29.9638 26.1894C30.1681 26.5395 30.3797 27.0484 30.57 27.7594L32.502 27.2422L34.4339 26.725C34.1815 25.7823 33.8528 24.9176 33.419 24.1739L31.6914 25.1816ZM32.502 27.2422L30.5749 27.7775C30.7825 28.5248 30.9916 29.4541 31.1995 30.5755L33.166 30.2109L35.1325 29.8464C34.9107 28.6501 34.6771 27.6002 34.429 26.7069L32.502 27.2422ZM33.166 30.2109L31.2018 30.5876C31.6168 32.752 31.8616 34.4968 31.9517 35.8426L33.9473 35.709L35.9428 35.5754C35.8376 34.0045 35.5616 32.0839 35.1302 29.8343L33.166 30.2109ZM33.9473 35.709L34.2899 37.6794L34.5146 37.6403L34.1719 35.6699L33.8292 33.6995L33.6046 33.7386L33.9473 35.709ZM34.1719 35.6699L35.9915 36.4999C36.2586 35.9145 36.5119 34.9621 36.7661 33.8499L34.8164 33.4043L32.8667 32.9586C32.6001 34.1252 32.4237 34.6832 32.3522 34.8399L34.1719 35.6699ZM34.8164 33.4043L36.7661 33.8499C37.0374 32.663 37.2707 31.4419 37.4664 30.187L35.4902 29.8789L33.5141 29.5708C33.3322 30.7378 33.1162 31.867 32.8667 32.9586L34.8164 33.4043ZM35.4902 29.8789L37.4666 30.1854C37.6587 28.9465 37.7734 27.907 37.7734 27.1348H35.7734H33.7734C33.7734 27.5865 33.6993 28.3764 33.5139 29.5724L35.4902 29.8789ZM35.7734 27.1348L36.0584 25.1552L34.7693 24.9696L34.4844 26.9492L34.1994 28.9288L35.4885 29.1144L35.7734 27.1348ZM34.4844 26.9492L36.4103 26.41C36.3323 26.1313 36.2868 25.9245 36.2633 25.7795L34.2891 26.0996L32.3149 26.4198C32.3695 26.7565 32.4542 27.1161 32.5584 27.4885L34.4844 26.9492ZM34.2891 26.0996L36.2646 25.7877C36.2413 25.64 36.225 25.463 36.2202 25.2534L34.2207 25.2988L32.2212 25.3443C32.2295 25.7076 32.2587 26.0645 32.3135 26.4115L34.2891 26.0996ZM34.2207 25.2988H36.2207C36.2207 25.2988 36.2207 25.2987 36.2207 25.2987C36.2207 25.2986 36.2207 25.2986 36.2207 25.2985C36.2207 25.2985 36.2207 25.2984 36.2207 25.2984C36.2207 25.2983 36.2207 25.2983 36.2207 25.2982C36.2207 25.2982 36.2207 25.2981 36.2207 25.2981C36.2207 25.298 36.2207 25.298 36.2207 25.2979C36.2207 25.2979 36.2207 25.2978 36.2207 25.2978C36.2207 25.2977 36.2207 25.2977 36.2207 25.2976C36.2207 25.2975 36.2207 25.2975 36.2207 25.2974C36.2207 25.2974 36.2207 25.2973 36.2207 25.2973C36.2207 25.2972 36.2207 25.2972 36.2207 25.2971C36.2207 25.2971 36.2207 25.297 36.2207 25.297C36.2207 25.2969 36.2207 25.2969 36.2207 25.2968C36.2207 25.2968 36.2207 25.2967 36.2207 25.2967C36.2207 25.2966 36.2207 25.2966 36.2207 25.2965C36.2207 25.2965 36.2207 25.2964 36.2207 25.2964C36.2207 25.2963 36.2207 25.2963 36.2207 25.2962C36.2207 25.2961 36.2207 25.2961 36.2207 25.296C36.2207 25.296 36.2207 25.2959 36.2207 25.2959C36.2207 25.2958 36.2207 25.2958 36.2207 25.2957C36.2207 25.2957 36.2207 25.2956 36.2207 25.2956C36.2207 25.2955 36.2207 25.2955 36.2207 25.2954C36.2207 25.2954 36.2207 25.2953 36.2207 25.2953C36.2207 25.2952 36.2207 25.2952 36.2207 25.2951C36.2207 25.295 36.2207 25.295 36.2207 25.2949C36.2207 25.2949 36.2207 25.2948 36.2207 25.2948C36.2207 25.2947 36.2207 25.2947 36.2207 25.2946C36.2207 25.2946 36.2207 25.2945 36.2207 25.2945C36.2207 25.2944 36.2207 25.2944 36.2207 25.2943C36.2207 25.2943 36.2207 25.2942 36.2207 25.2941C36.2207 25.2941 36.2207 25.294 36.2207 25.294C36.2207 25.2939 36.2207 25.2939 36.2207 25.2938C36.2207 25.2938 36.2207 25.2937 36.2207 25.2937C36.2207 25.2936 36.2207 25.2936 36.2207 25.2935C36.2207 25.2935 36.2207 25.2934 36.2207 25.2934C36.2207 25.2933 36.2207 25.2932 36.2207 25.2932C36.2207 25.2931 36.2207 25.2931 36.2207 25.293C36.2207 25.293 36.2207 25.2929 36.2207 25.2929C36.2207 25.2928 36.2207 25.2928 36.2207 25.2927C36.2207 25.2927 36.2207 25.2926 36.2207 25.2925C36.2207 25.2925 36.2207 25.2924 36.2207 25.2924C36.2207 25.2923 36.2207 25.2923 36.2207 25.2922C36.2207 25.2922 36.2207 25.2921 36.2207 25.2921C36.2207 25.292 36.2207 25.292 36.2207 25.2919C36.2207 25.2918 36.2207 25.2918 36.2207 25.2917C36.2207 25.2917 36.2207 25.2916 36.2207 25.2916C36.2207 25.2915 36.2207 25.2915 36.2207 25.2914C36.2207 25.2914 36.2207 25.2913 36.2207 25.2912C36.2207 25.2912 36.2207 25.2911 36.2207 25.2911C36.2207 25.291 36.2207 25.291 36.2207 25.2909C36.2207 25.2909 36.2207 25.2908 36.2207 25.2908C36.2207 25.2907 36.2207 25.2906 36.2207 25.2906C36.2207 25.2905 36.2207 25.2905 36.2207 25.2904C36.2207 25.2904 36.2207 25.2903 36.2207 25.2903C36.2207 25.2902 36.2207 25.2902 36.2207 25.2901C36.2207 25.29 36.2207 25.29 36.2207 25.2899C36.2207 25.2899 36.2207 25.2898 36.2207 25.2898C36.2207 25.2897 36.2207 25.2897 36.2207 25.2896C36.2207 25.2895 36.2207 25.2895 36.2207 25.2894C36.2207 25.2894 36.2207 25.2893 36.2207 25.2893C36.2207 25.2892 36.2207 25.2892 36.2207 25.2891C36.2207 25.289 36.2207 25.289 36.2207 25.2889C36.2207 25.2889 36.2207 25.2888 36.2207 25.2888C36.2207 25.2887 36.2207 25.2887 36.2207 25.2886C36.2207 25.2885 36.2207 25.2885 36.2207 25.2884C36.2207 25.2884 36.2207 25.2883 36.2207 25.2883C36.2207 25.2882 36.2207 25.2882 36.2207 25.2881C36.2207 25.288 36.2207 25.288 36.2207 25.2879C36.2207 25.2879 36.2207 25.2878 36.2207 25.2878C36.2207 25.2877 36.2207 25.2877 36.2207 25.2876C36.2207 25.2875 36.2207 25.2875 36.2207 25.2874C36.2207 25.2874 36.2207 25.2873 36.2207 25.2873C36.2207 25.2872 36.2207 25.2871 36.2207 25.2871C36.2207 25.287 36.2207 25.287 36.2207 25.2869C36.2207 25.2869 36.2207 25.2868 36.2207 25.2868C36.2207 25.2867 36.2207 25.2866 36.2207 25.2866C36.2207 25.2865 36.2207 25.2865 36.2207 25.2864C36.2207 25.2864 36.2207 25.2863 36.2207 25.2862C36.2207 25.2862 36.2207 25.2861 36.2207 25.2861C36.2207 25.286 36.2207 25.286 36.2207 25.2859C36.2207 25.2858 36.2207 25.2858 36.2207 25.2857C36.2207 25.2857 36.2207 25.2856 36.2207 25.2856C36.2207 25.2855 36.2207 25.2855 36.2207 25.2854C36.2207 25.2853 36.2207 25.2853 36.2207 25.2852C36.2207 25.2852 36.2207 25.2851 36.2207 25.2851C36.2207 25.285 36.2207 25.2849 36.2207 25.2849C36.2207 25.2848 36.2207 25.2848 36.2207 25.2847C36.2207 25.2846 36.2207 25.2846 36.2207 25.2845C36.2207 25.2845 36.2207 25.2844 36.2207 25.2844C36.2207 25.2843 36.2207 25.2842 36.2207 25.2842C36.2207 25.2841 36.2207 25.2841 36.2207 25.284C36.2207 25.284 36.2207 25.2839 36.2207 25.2838C36.2207 25.2838 36.2207 25.2837 36.2207 25.2837C36.2207 25.2836 36.2207 25.2836 36.2207 25.2835C36.2207 25.2834 36.2207 25.2834 36.2207 25.2833C36.2207 25.2833 36.2207 25.2832 36.2207 25.2831C36.2207 25.2831 36.2207 25.283 36.2207 25.283C36.2207 25.2829 36.2207 25.2829 36.2207 25.2828C36.2207 25.2827 36.2207 25.2827 36.2207 25.2826C36.2207 25.2826 36.2207 25.2825 36.2207 25.2825C36.2207 25.2824 36.2207 25.2823 36.2207 25.2823C36.2207 25.2822 36.2207 25.2822 36.2207 25.2821C36.2207 25.282 36.2207 25.282 36.2207 25.2819C36.2207 25.2819 36.2207 25.2818 36.2207 25.2818C36.2207 25.2817 36.2207 25.2816 36.2207 25.2816C36.2207 25.2815 36.2207 25.2815 36.2207 25.2814C36.2207 25.2813 36.2207 25.2813 36.2207 25.2812C36.2207 25.2812 36.2207 25.2811 36.2207 25.281C36.2207 25.281 36.2207 25.2809 36.2207 25.2809C36.2207 25.2808 36.2207 25.2808 36.2207 25.2807C36.2207 25.2806 36.2207 25.2806 36.2207 25.2805C36.2207 25.2805 36.2207 25.2804 36.2207 25.2803C36.2207 25.2803 36.2207 25.2802 36.2207 25.2802C36.2207 25.2801 36.2207 25.28 36.2207 25.28C36.2207 25.2799 36.2207 25.2799 36.2207 25.2798C36.2207 25.2797 36.2207 25.2797 36.2207 25.2796C36.2207 25.2796 36.2207 25.2795 36.2207 25.2794C36.2207 25.2794 36.2207 25.2793 36.2207 25.2793C36.2207 25.2792 36.2207 25.2791 36.2207 25.2791C36.2207 25.279 36.2207 25.279 36.2207 25.2789C36.2207 25.2788 36.2207 25.2788 36.2207 25.2787C36.2207 25.2787 36.2207 25.2786 36.2207 25.2785C36.2207 25.2785 36.2207 25.2784 36.2207 25.2784C36.2207 25.2783 36.2207 25.2782 36.2207 25.2782C36.2207 25.2781 36.2207 25.2781 36.2207 25.278C36.2207 25.2779 36.2207 25.2779 36.2207 25.2778C36.2207 25.2778 36.2207 25.2777 36.2207 25.2776C36.2207 25.2776 36.2207 25.2775 36.2207 25.2775C36.2207 25.2774 36.2207 25.2773 36.2207 25.2773C36.2207 25.2772 36.2207 25.2772 36.2207 25.2771C36.2207 25.277 36.2207 25.277 36.2207 25.2769C36.2207 25.2769 36.2207 25.2768 36.2207 25.2767C36.2207 25.2767 36.2207 25.2766 36.2207 25.2766C36.2207 25.2765 36.2207 25.2764 36.2207 25.2764C36.2207 25.2763 36.2207 25.2763 36.2207 25.2762C36.2207 25.2761 36.2207 25.2761 36.2207 25.276C36.2207 25.2759 36.2207 25.2759 36.2207 25.2758C36.2207 25.2758 36.2207 25.2757 36.2207 25.2756C36.2207 25.2756 36.2207 25.2755 36.2207 25.2755C36.2207 25.2754 36.2207 25.2753 36.2207 25.2753C36.2207 25.2752 36.2207 25.2752 36.2207 25.2751C36.2207 25.275 36.2207 25.275 36.2207 25.2749C36.2207 25.2748 36.2207 25.2748 36.2207 25.2747C36.2207 25.2747 36.2207 25.2746 36.2207 25.2745C36.2207 25.2745 36.2207 25.2744 36.2207 25.2744C36.2207 25.2743 36.2207 25.2742 36.2207 25.2742C36.2207 25.2741 36.2207 25.274 36.2207 25.274C36.2207 25.2739 36.2207 25.2739 36.2207 25.2738C36.2207 25.2737 36.2207 25.2737 36.2207 25.2736C36.2207 25.2735 36.2207 25.2735 36.2207 25.2734C36.2207 25.2734 36.2207 25.2733 36.2207 25.2732C36.2207 25.2732 36.2207 25.2731 36.2207 25.2731C36.2207 25.273 36.2207 25.2729 36.2207 25.2729C36.2207 25.2728 36.2207 25.2727 36.2207 25.2727C36.2207 25.2726 36.2207 25.2726 36.2207 25.2725C36.2207 25.2724 36.2207 25.2724 36.2207 25.2723C36.2207 25.2722 36.2207 25.2722 36.2207 25.2721C36.2207 25.2721 36.2207 25.272 36.2207 25.2719C36.2207 25.2719 36.2207 25.2718 36.2207 25.2717C36.2207 25.2717 36.2207 25.2716 36.2207 25.2716C36.2207 25.2715 36.2207 25.2714 36.2207 25.2714C36.2207 25.2713 36.2207 25.2712 36.2207 25.2712C36.2207 25.2711 36.2207 25.271 36.2207 25.271C36.2207 25.2709 36.2207 25.2709 36.2207 25.2708C36.2207 25.2707 36.2207 25.2707 36.2207 25.2706C36.2207 25.2705 36.2207 25.2705 36.2207 25.2704C36.2207 25.2704 36.2207 25.2703 36.2207 25.2702C36.2207 25.2702 36.2207 25.2701 36.2207 25.27C36.2207 25.27 36.2207 25.2699 36.2207 25.2698C36.2207 25.2698 36.2207 25.2697 36.2207 25.2697C36.2207 25.2696 36.2207 25.2695 36.2207 25.2695C36.2207 25.2694 36.2207 25.2693 36.2207 25.2693C36.2207 25.2692 36.2207 25.2691 36.2207 25.2691C36.2207 25.269 36.2207 25.269 36.2207 25.2689C36.2207 25.2688 36.2207 25.2688 36.2207 25.2687C36.2207 25.2686 36.2207 25.2686 36.2207 25.2685C36.2207 25.2684 36.2207 25.2684 36.2207 25.2683C36.2207 25.2683 36.2207 25.2682 36.2207 25.2681C36.2207 25.2681 36.2207 25.268 36.2207 25.2679C36.2207 25.2679 36.2207 25.2678 36.2207 25.2677C36.2207 25.2677 36.2207 25.2676 36.2207 25.2675C36.2207 25.2675 36.2207 25.2674 36.2207 25.2674C36.2207 25.2673 36.2207 25.2672 36.2207 25.2672C36.2207 25.2671 36.2207 25.267 36.2207 25.267C36.2207 25.2669 36.2207 25.2668 36.2207 25.2668C36.2207 25.2667 36.2207 25.2666 36.2207 25.2666C36.2207 25.2665 36.2207 25.2665 36.2207 25.2664C36.2207 25.2663 36.2207 25.2663 36.2207 25.2662C36.2207 25.2661 36.2207 25.2661 36.2207 25.266C36.2207 25.2659 36.2207 25.2659 36.2207 25.2658C36.2207 25.2657 36.2207 25.2657 36.2207 25.2656C36.2207 25.2655 36.2207 25.2655 36.2207 25.2654C36.2207 25.2653 36.2207 25.2653 36.2207 25.2652C36.2207 25.2652 36.2207 25.2651 36.2207 25.265C36.2207 25.265 36.2207 25.2649 36.2207 25.2648C36.2207 25.2648 36.2207 25.2647 36.2207 25.2646C36.2207 25.2646 36.2207 25.2645 36.2207 25.2644C36.2207 25.2644 36.2207 25.2643 36.2207 25.2642C36.2207 25.2642 36.2207 25.2641 36.2207 25.264C36.2207 25.264 36.2207 25.2639 36.2207 25.2638C36.2207 25.2638 36.2207 25.2637 36.2207 25.2636C36.2207 25.2636 36.2207 25.2635 36.2207 25.2634C36.2207 25.2634 36.2207 25.2633 36.2207 25.2632C36.2207 25.2632 36.2207 25.2631 36.2207 25.263C36.2207 25.263 36.2207 25.2629 36.2207 25.2629C36.2207 25.2628 36.2207 25.2627 36.2207 25.2627C36.2207 25.2626 36.2207 25.2625 36.2207 25.2625C36.2207 25.2624 36.2207 25.2623 36.2207 25.2623C36.2207 25.2622 36.2207 25.2621 36.2207 25.2621C36.2207 25.262 36.2207 25.2619 36.2207 25.2619C36.2207 25.2618 36.2207 25.2617 36.2207 25.2617C36.2207 25.2616 36.2207 25.2615 36.2207 25.2615C36.2207 25.2614 36.2207 25.2613 36.2207 25.2613C36.2207 25.2612 36.2207 25.2611 36.2207 25.2611C36.2207 25.261 36.2207 25.2609 36.2207 25.2609C36.2207 25.2608 36.2207 25.2607 36.2207 25.2607C36.2207 25.2606 36.2207 25.2605 36.2207 25.2605C36.2207 25.2604 36.2207 25.2603 36.2207 25.2603C36.2207 25.2602 36.2207 25.2601 36.2207 25.2601C36.2207 25.26 36.2207 25.2599 36.2207 25.2598C36.2207 25.2598 36.2207 25.2597 36.2207 25.2596C36.2207 25.2596 36.2207 25.2595 36.2207 25.2594C36.2207 25.2594 36.2207 25.2593 36.2207 25.2592C36.2207 25.2592 36.2207 25.2591 36.2207 25.259C36.2207 25.259 36.2207 25.2589 36.2207 25.2588C36.2207 25.2588 36.2207 25.2587 36.2207 25.2586C36.2207 25.2586 36.2207 25.2585 36.2207 25.2584C36.2207 25.2584 36.2207 25.2583 36.2207 25.2582C36.2207 25.2582 36.2207 25.2581 36.2207 25.258C36.2207 25.258 36.2207 25.2579 36.2207 25.2578C36.2207 25.2578 36.2207 25.2577 36.2207 25.2576C36.2207 25.2575 36.2207 25.2575 36.2207 25.2574C36.2207 25.2573 36.2207 25.2573 36.2207 25.2572C36.2207 25.2571 36.2207 25.2571 36.2207 25.257C36.2207 25.2569 36.2207 25.2569 36.2207 25.2568C36.2207 25.2567 36.2207 25.2567 36.2207 25.2566C36.2207 25.2565 36.2207 25.2565 36.2207 25.2564C36.2207 25.2563 36.2207 25.2563 36.2207 25.2562C36.2207 25.2561 36.2207 25.256 36.2207 25.256C36.2207 25.2559 36.2207 25.2558 36.2207 25.2558C36.2207 25.2557 36.2207 25.2556 36.2207 25.2556C36.2207 25.2555 36.2207 25.2554 36.2207 25.2554C36.2207 25.2553 36.2207 25.2552 36.2207 25.2552C36.2207 25.2551 36.2207 25.255 36.2207 25.2549C36.2207 25.2549 36.2207 25.2548 36.2207 25.2547C36.2207 25.2547 36.2207 25.2546 36.2207 25.2545C36.2207 25.2545 36.2207 25.2544 36.2207 25.2543C36.2207 25.2543 36.2207 25.2542 36.2207 25.2541C36.2207 25.254 36.2207 25.254 36.2207 25.2539C36.2207 25.2538 36.2207 25.2538 36.2207 25.2537C36.2207 25.2536 36.2207 25.2536 36.2207 25.2535C36.2207 25.2534 36.2207 25.2533 36.2207 25.2533C36.2207 25.2532 36.2207 25.2531 36.2207 25.2531C36.2207 25.253 36.2207 25.2529 36.2207 25.2529C36.2207 25.2528 36.2207 25.2527 36.2207 25.2527C36.2207 25.2526 36.2207 25.2525 36.2207 25.2524C36.2207 25.2524 36.2207 25.2523 36.2207 25.2522C36.2207 25.2522 36.2207 25.2521 36.2207 25.252C36.2207 25.252 36.2207 25.2519 36.2207 25.2518C36.2207 25.2517 36.2207 25.2517 36.2207 25.2516C36.2207 25.2515 36.2207 25.2515 36.2207 25.2514C36.2207 25.2513 36.2207 25.2512 36.2207 25.2512C36.2207 25.2511 36.2207 25.251 36.2207 25.251C36.2207 25.2509 36.2207 25.2508 36.2207 25.2508C36.2207 25.2507 36.2207 25.2506 36.2207 25.2505C36.2207 25.2505 36.2207 25.2504 36.2207 25.2503C36.2207 25.2503 36.2207 25.2502 36.2207 25.2501C36.2207 25.25 36.2207 25.25 36.2207 25.2499C36.2207 25.2498 36.2207 25.2498 36.2207 25.2497C36.2207 25.2496 36.2207 25.2496 36.2207 25.2495C36.2207 25.2494 36.2207 25.2493 36.2207 25.2493C36.2207 25.2492 36.2207 25.2491 36.2207 25.2491C36.2207 25.249 36.2207 25.2489 36.2207 25.2488C36.2207 25.2488 36.2207 25.2487 36.2207 25.2486C36.2207 25.2486 36.2207 25.2485 36.2207 25.2484C36.2207 25.2483 36.2207 25.2483 36.2207 25.2482C36.2207 25.2481 36.2207 25.2481 36.2207 25.248C36.2207 25.2479 36.2207 25.2478 36.2207 25.2478C36.2207 25.2477 36.2207 25.2476 36.2207 25.2476C36.2207 25.2475 36.2207 25.2474 36.2207 25.2473C36.2207 25.2473 36.2207 25.2472 36.2207 25.2471C36.2207 25.2471 36.2207 25.247 36.2207 25.2469C36.2207 25.2468 36.2207 25.2468 36.2207 25.2467C36.2207 25.2466 36.2207 25.2466 36.2207 25.2465C36.2207 25.2464 36.2207 25.2463 36.2207 25.2463C36.2207 25.2462 36.2207 25.2461 36.2207 25.246C36.2207 25.246 36.2207 25.2459 36.2207 25.2458C36.2207 25.2458 36.2207 25.2457 36.2207 25.2456C36.2207 25.2455 36.2207 25.2455 36.2207 25.2454C36.2207 25.2453 36.2207 25.2453 36.2207 25.2452C36.2207 25.2451 36.2207 25.245 36.2207 25.245C36.2207 25.2449 36.2207 25.2448 36.2207 25.2447C36.2207 25.2447 36.2207 25.2446 36.2207 25.2445C36.2207 25.2445 36.2207 25.2444 36.2207 25.2443C36.2207 25.2442 36.2207 25.2442 36.2207 25.2441C36.2207 25.244 36.2207 25.2439 36.2207 25.2439C36.2207 25.2438 36.2207 25.2437 36.2207 25.2437C36.2207 25.2436 36.2207 25.2435 36.2207 25.2434C36.2207 25.2434 36.2207 25.2433 36.2207 25.2432C36.2207 25.2431 36.2207 25.2431 36.2207 25.243C36.2207 25.2429 36.2207 25.2428 36.2207 25.2428C36.2207 25.2427 36.2207 25.2426 36.2207 25.2426C36.2207 25.2425 36.2207 25.2424 36.2207 25.2423C36.2207 25.2423 36.2207 25.2422 36.2207 25.2421C36.2207 25.242 36.2207 25.242 36.2207 25.2419C36.2207 25.2418 36.2207 25.2417 36.2207 25.2417C36.2207 25.2416 36.2207 25.2415 36.2207 25.2415C36.2207 25.2414 36.2207 25.2413 36.2207 25.2412C36.2207 25.2412 36.2207 25.2411 36.2207 25.241C36.2207 25.2409 36.2207 25.2409 36.2207 25.2408C36.2207 25.2407 36.2207 25.2406 36.2207 25.2406C36.2207 25.2405 36.2207 25.2404 36.2207 25.2403C36.2207 25.2403 36.2207 25.2402 36.2207 25.2401C36.2207 25.24 36.2207 25.24 36.2207 25.2399C36.2207 25.2398 36.2207 25.2397 36.2207 25.2397C36.2207 25.2396 36.2207 25.2395 36.2207 25.2395C36.2207 25.2394 36.2207 25.2393 36.2207 25.2392C36.2207 25.2392 36.2207 25.2391 36.2207 25.239C36.2207 25.2389 36.2207 25.2389 36.2207 25.2388C36.2207 25.2387 36.2207 25.2386 36.2207 25.2386C36.2207 25.2385 36.2207 25.2384 36.2207 25.2383C36.2207 25.2383 36.2207 25.2382 36.2207 25.2381C36.2207 25.238 36.2207 25.238 36.2207 25.2379C36.2207 25.2378 36.2207 25.2377 36.2207 25.2377C36.2207 25.2376 36.2207 25.2375 36.2207 25.2374C36.2207 25.2374 36.2207 25.2373 36.2207 25.2372C36.2207 25.2371 36.2207 25.2371 36.2207 25.237C36.2207 25.2369 36.2207 25.2368 36.2207 25.2368C36.2207 25.2367 36.2207 25.2366 36.2207 25.2365C36.2207 25.2365 36.2207 25.2364 36.2207 25.2363C36.2207 25.2362 36.2207 25.2362 36.2207 25.2361C36.2207 25.236 36.2207 25.2359 36.2207 25.2359C36.2207 25.2358 36.2207 25.2357 36.2207 25.2356C36.2207 25.2355 36.2207 25.2355 36.2207 25.2354C36.2207 25.2353 36.2207 25.2352 36.2207 25.2352C36.2207 25.2351 36.2207 25.235 36.2207 25.2349C36.2207 25.2349 36.2207 25.2348 36.2207 25.2347C36.2207 25.2346 36.2207 25.2346 36.2207 25.2345C36.2207 25.2344 36.2207 25.2343 36.2207 25.2343C36.2207 25.2342 36.2207 25.2341 36.2207 25.234C36.2207 25.234 36.2207 25.2339 36.2207 25.2338C36.2207 25.2337 36.2207 25.2336 36.2207 25.2336C36.2207 25.2335 36.2207 25.2334 36.2207 25.2333C36.2207 25.2333 36.2207 25.2332 36.2207 25.2331C36.2207 25.233 36.2207 25.233 36.2207 25.2329C36.2207 25.2328 36.2207 25.2327 36.2207 25.2327C36.2207 25.2326 36.2207 25.2325 36.2207 25.2324C36.2207 25.2323 36.2207 25.2323 36.2207 25.2322C36.2207 25.2321 36.2207 25.232 36.2207 25.232C36.2207 25.2319 36.2207 25.2318 36.2207 25.2317C36.2207 25.2317 36.2207 25.2316 36.2207 25.2315C36.2207 25.2314 36.2207 25.2313 36.2207 25.2313C36.2207 25.2312 36.2207 25.2311 36.2207 25.231C36.2207 25.231 36.2207 25.2309 36.2207 25.2308C36.2207 25.2307 36.2207 25.2307 36.2207 25.2306C36.2207 25.2305 36.2207 25.2304 36.2207 25.2303C36.2207 25.2303 36.2207 25.2302 36.2207 25.2301C36.2207 25.23 36.2207 25.23 36.2207 25.2299C36.2207 25.2298 36.2207 25.2297 36.2207 25.2296C36.2207 25.2296 36.2207 25.2295 36.2207 25.2294C36.2207 25.2293 36.2207 25.2293 36.2207 25.2292C36.2207 25.2291 36.2207 25.229 36.2207 25.2289C36.2207 25.2289 36.2207 25.2288 36.2207 25.2287C36.2207 25.2286 36.2207 25.2286 36.2207 25.2285C36.2207 25.2284 36.2207 25.2283 36.2207 25.2282C36.2207 25.2282 36.2207 25.2281 36.2207 25.228C36.2207 25.2279 36.2207 25.2279 36.2207 25.2278C36.2207 25.2277 36.2207 25.2276 36.2207 25.2275C36.2207 25.2275 36.2207 25.2274 36.2207 25.2273C36.2207 25.2272 36.2207 25.2271 36.2207 25.2271C36.2207 25.227 36.2207 25.2269 36.2207 25.2268C36.2207 25.2268 36.2207 25.2267 36.2207 25.2266C36.2207 25.2265 36.2207 25.2264 36.2207 25.2264C36.2207 25.2263 36.2207 25.2262 36.2207 25.2261C36.2207 25.226 36.2207 25.226 36.2207 25.2259C36.2207 25.2258 36.2207 25.2257 36.2207 25.2257C36.2207 25.2256 36.2207 25.2255 36.2207 25.2254C36.2207 25.2253 36.2207 25.2253 36.2207 25.2252C36.2207 25.2251 36.2207 25.225 36.2207 25.2249C36.2207 25.2249 36.2207 25.2248 36.2207 25.2247C36.2207 25.2246 36.2207 25.2245 36.2207 25.2245C36.2207 25.2244 36.2207 25.2243 36.2207 25.2242C36.2207 25.2242 36.2207 25.2241 36.2207 25.224C36.2207 25.2239 36.2207 25.2238 36.2207 25.2238C36.2207 25.2237 36.2207 25.2236 36.2207 25.2235C36.2207 25.2234 36.2207 25.2234 36.2207 25.2233C36.2207 25.2232 36.2207 25.2231 36.2207 25.223C36.2207 25.223 36.2207 25.2229 36.2207 25.2228C36.2207 25.2227 36.2207 25.2226 36.2207 25.2226C36.2207 25.2225 36.2207 25.2224 36.2207 25.2223C36.2207 25.2222 36.2207 25.2222 36.2207 25.2221C36.2207 25.222 36.2207 25.2219 36.2207 25.2218C36.2207 25.2218 36.2207 25.2217 36.2207 25.2216C36.2207 25.2215 36.2207 25.2214 36.2207 25.2214C36.2207 25.2213 36.2207 25.2212 36.2207 25.2211C36.2207 25.221 36.2207 25.221 36.2207 25.2209C36.2207 25.2208 36.2207 25.2207 36.2207 25.2206C36.2207 25.2206 36.2207 25.2205 36.2207 25.2204C36.2207 25.2203 36.2207 25.2202 36.2207 25.2202C36.2207 25.2201 36.2207 25.22 36.2207 25.2199C36.2207 25.2198 36.2207 25.2198 36.2207 25.2197C36.2207 25.2196 36.2207 25.2195 36.2207 25.2194C36.2207 25.2193 36.2207 25.2193 36.2207 25.2192C36.2207 25.2191 36.2207 25.219 36.2207 25.2189C36.2207 25.2189 36.2207 25.2188 36.2207 25.2187C36.2207 25.2186 36.2207 25.2185 36.2207 25.2185C36.2207 25.2184 36.2207 25.2183 36.2207 25.2182C36.2207 25.2181 36.2207 25.218 36.2207 25.218C36.2207 25.2179 36.2207 25.2178 36.2207 25.2177C36.2207 25.2176 36.2207 25.2176 36.2207 25.2175C36.2207 25.2174 36.2207 25.2173 36.2207 25.2172C36.2207 25.2172 36.2207 25.2171 36.2207 25.217C36.2207 25.2169 36.2207 25.2168 36.2207 25.2167C36.2207 25.2167 36.2207 25.2166 36.2207 25.2165C36.2207 25.2164 36.2207 25.2163 36.2207 25.2163C36.2207 25.2162 36.2207 25.2161 36.2207 25.216C36.2207 25.2159 36.2207 25.2158 36.2207 25.2158C36.2207 25.2157 36.2207 25.2156 36.2207 25.2155C36.2207 25.2154 36.2207 25.2154 36.2207 25.2153C36.2207 25.2152 36.2207 25.2151 36.2207 25.215C36.2207 25.2149 36.2207 25.2149 36.2207 25.2148C36.2207 25.2147 36.2207 25.2146 36.2207 25.2145C36.2207 25.2145 36.2207 25.2144 36.2207 25.2143C36.2207 25.2142 36.2207 25.2141 36.2207 25.214C36.2207 25.214 36.2207 25.2139 36.2207 25.2138C36.2207 25.2137 36.2207 25.2136 36.2207 25.2135C36.2207 25.2135 36.2207 25.2134 36.2207 25.2133C36.2207 25.2132 36.2207 25.2131 36.2207 25.213C36.2207 25.213 36.2207 25.2129 36.2207 25.2128C36.2207 25.2127 36.2207 25.2126 36.2207 25.2126C36.2207 25.2125 36.2207 25.2124 36.2207 25.2123C36.2207 25.2122 36.2207 25.2121 36.2207 25.2121C36.2207 25.212 36.2207 25.2119 36.2207 25.2118C36.2207 25.2117 36.2207 25.2116 36.2207 25.2116C36.2207 25.2115 36.2207 25.2114 36.2207 25.2113C36.2207 25.2112 36.2207 25.2111 36.2207 25.2111C36.2207 25.211 36.2207 25.2109 36.2207 25.2108C36.2207 25.2107 36.2207 25.2106 36.2207 25.2106C36.2207 25.2105 36.2207 25.2104 36.2207 25.2103C36.2207 25.2102 36.2207 25.2101 36.2207 25.2101C36.2207 25.21 36.2207 25.2099 36.2207 25.2098C36.2207 25.2097 36.2207 25.2096 36.2207 25.2096C36.2207 25.2095 36.2207 25.2094 36.2207 25.2093C36.2207 25.2092 36.2207 25.2091 36.2207 25.209C36.2207 25.209 36.2207 25.2089 36.2207 25.2088C36.2207 25.2087 36.2207 25.2086 36.2207 25.2085C36.2207 25.2085 36.2207 25.2084 36.2207 25.2083C36.2207 25.2082 36.2207 25.2081 36.2207 25.208C36.2207 25.208 36.2207 25.2079 36.2207 25.2078C36.2207 25.2077 36.2207 25.2076 36.2207 25.2075C36.2207 25.2074 36.2207 25.2074 36.2207 25.2073C36.2207 25.2072 36.2207 25.2071 36.2207 25.207C36.2207 25.2069 36.2207 25.2069 36.2207 25.2068C36.2207 25.2067 36.2207 25.2066 36.2207 25.2065C36.2207 25.2064 36.2207 25.2063 36.2207 25.2063C36.2207 25.2062 36.2207 25.2061 36.2207 25.206C36.2207 25.2059 36.2207 25.2058 36.2207 25.2058C36.2207 25.2057 36.2207 25.2056 36.2207 25.2055C36.2207 25.2054 36.2207 25.2053 36.2207 25.2052C36.2207 25.2052 36.2207 25.2051 36.2207 25.205C36.2207 25.2049 36.2207 25.2048 36.2207 25.2047C36.2207 25.2046 36.2207 25.2046 36.2207 25.2045C36.2207 25.2044 36.2207 25.2043 36.2207 25.2042C36.2207 25.2041 36.2207 25.2041 36.2207 25.204C36.2207 25.2039 36.2207 25.2038 36.2207 25.2037C36.2207 25.2036 36.2207 25.2035 36.2207 25.2035C36.2207 25.2034 36.2207 25.2033 36.2207 25.2032C36.2207 25.2031 36.2207 25.203 36.2207 25.2029C36.2207 25.2029 36.2207 25.2028 36.2207 25.2027C36.2207 25.2026 36.2207 25.2025 36.2207 25.2024C36.2207 25.2023 36.2207 25.2023 36.2207 25.2022C36.2207 25.2021 36.2207 25.202 36.2207 25.2019C36.2207 25.2018 36.2207 25.2017 36.2207 25.2017C36.2207 25.2016 36.2207 25.2015 36.2207 25.2014C36.2207 25.2013 36.2207 25.2012 36.2207 25.2011C36.2207 25.201 36.2207 25.201 36.2207 25.2009C36.2207 25.2008 36.2207 25.2007 36.2207 25.2006C36.2207 25.2005 36.2207 25.2004 36.2207 25.2004C36.2207 25.2003 36.2207 25.2002 36.2207 25.2001C36.2207 25.2 36.2207 25.1999 36.2207 25.1998C36.2207 25.1998 36.2207 25.1997 36.2207 25.1996C36.2207 25.1995 36.2207 25.1994 36.2207 25.1993C36.2207 25.1992 36.2207 25.1991 36.2207 25.1991C36.2207 25.199 36.2207 25.1989 36.2207 25.1988C36.2207 25.1987 36.2207 25.1986 36.2207 25.1985C36.2207 25.1984 36.2207 25.1984 36.2207 25.1983C36.2207 25.1982 36.2207 25.1981 36.2207 25.198C36.2207 25.1979 36.2207 25.1978 36.2207 25.1978C36.2207 25.1977 36.2207 25.1976 36.2207 25.1975C36.2207 25.1974 36.2207 25.1973 36.2207 25.1972C36.2207 25.1971 36.2207 25.1971 36.2207 25.197C36.2207 25.1969 36.2207 25.1968 36.2207 25.1967C36.2207 25.1966 36.2207 25.1965 36.2207 25.1964C36.2207 25.1964 36.2207 25.1963 36.2207 25.1962C36.2207 25.1961 36.2207 25.196 36.2207 25.1959C36.2207 25.1958 36.2207 25.1957 36.2207 25.1957C36.2207 25.1956 36.2207 25.1955 36.2207 25.1954C36.2207 25.1953 36.2207 25.1952 36.2207 25.1951C36.2207 25.195 36.2207 25.1949 36.2207 25.1949C36.2207 25.1948 36.2207 25.1947 36.2207 25.1946C36.2207 25.1945 36.2207 25.1944 36.2207 25.1943C36.2207 25.1942 36.2207 25.1942 36.2207 25.1941C36.2207 25.194 36.2207 25.1939 36.2207 25.1938C36.2207 25.1937 36.2207 25.1936 36.2207 25.1935C36.2207 25.1934 36.2207 25.1934 36.2207 25.1933C36.2207 25.1932 36.2207 25.1931 36.2207 25.193C36.2207 25.1929 36.2207 25.1928 36.2207 25.1927C36.2207 25.1927 36.2207 25.1926 36.2207 25.1925C36.2207 25.1924 36.2207 25.1923 36.2207 25.1922C36.2207 25.1921 36.2207 25.192 36.2207 25.1919C36.2207 25.1919 36.2207 25.1918 36.2207 25.1917C36.2207 25.1916 36.2207 25.1915 36.2207 25.1914H34.2207H32.2207C32.2207 25.1915 32.2207 25.1916 32.2207 25.1917C32.2207 25.1918 32.2207 25.1919 32.2207 25.1919C32.2207 25.192 32.2207 25.1921 32.2207 25.1922C32.2207 25.1923 32.2207 25.1924 32.2207 25.1925C32.2207 25.1926 32.2207 25.1927 32.2207 25.1927C32.2207 25.1928 32.2207 25.1929 32.2207 25.193C32.2207 25.1931 32.2207 25.1932 32.2207 25.1933C32.2207 25.1934 32.2207 25.1934 32.2207 25.1935C32.2207 25.1936 32.2207 25.1937 32.2207 25.1938C32.2207 25.1939 32.2207 25.194 32.2207 25.1941C32.2207 25.1942 32.2207 25.1942 32.2207 25.1943C32.2207 25.1944 32.2207 25.1945 32.2207 25.1946C32.2207 25.1947 32.2207 25.1948 32.2207 25.1949C32.2207 25.1949 32.2207 25.195 32.2207 25.1951C32.2207 25.1952 32.2207 25.1953 32.2207 25.1954C32.2207 25.1955 32.2207 25.1956 32.2207 25.1957C32.2207 25.1957 32.2207 25.1958 32.2207 25.1959C32.2207 25.196 32.2207 25.1961 32.2207 25.1962C32.2207 25.1963 32.2207 25.1964 32.2207 25.1964C32.2207 25.1965 32.2207 25.1966 32.2207 25.1967C32.2207 25.1968 32.2207 25.1969 32.2207 25.197C32.2207 25.1971 32.2207 25.1971 32.2207 25.1972C32.2207 25.1973 32.2207 25.1974 32.2207 25.1975C32.2207 25.1976 32.2207 25.1977 32.2207 25.1978C32.2207 25.1978 32.2207 25.1979 32.2207 25.198C32.2207 25.1981 32.2207 25.1982 32.2207 25.1983C32.2207 25.1984 32.2207 25.1984 32.2207 25.1985C32.2207 25.1986 32.2207 25.1987 32.2207 25.1988C32.2207 25.1989 32.2207 25.199 32.2207 25.1991C32.2207 25.1991 32.2207 25.1992 32.2207 25.1993C32.2207 25.1994 32.2207 25.1995 32.2207 25.1996C32.2207 25.1997 32.2207 25.1998 32.2207 25.1998C32.2207 25.1999 32.2207 25.2 32.2207 25.2001C32.2207 25.2002 32.2207 25.2003 32.2207 25.2004C32.2207 25.2004 32.2207 25.2005 32.2207 25.2006C32.2207 25.2007 32.2207 25.2008 32.2207 25.2009C32.2207 25.201 32.2207 25.201 32.2207 25.2011C32.2207 25.2012 32.2207 25.2013 32.2207 25.2014C32.2207 25.2015 32.2207 25.2016 32.2207 25.2017C32.2207 25.2017 32.2207 25.2018 32.2207 25.2019C32.2207 25.202 32.2207 25.2021 32.2207 25.2022C32.2207 25.2023 32.2207 25.2023 32.2207 25.2024C32.2207 25.2025 32.2207 25.2026 32.2207 25.2027C32.2207 25.2028 32.2207 25.2029 32.2207 25.2029C32.2207 25.203 32.2207 25.2031 32.2207 25.2032C32.2207 25.2033 32.2207 25.2034 32.2207 25.2035C32.2207 25.2035 32.2207 25.2036 32.2207 25.2037C32.2207 25.2038 32.2207 25.2039 32.2207 25.204C32.2207 25.2041 32.2207 25.2041 32.2207 25.2042C32.2207 25.2043 32.2207 25.2044 32.2207 25.2045C32.2207 25.2046 32.2207 25.2046 32.2207 25.2047C32.2207 25.2048 32.2207 25.2049 32.2207 25.205C32.2207 25.2051 32.2207 25.2052 32.2207 25.2052C32.2207 25.2053 32.2207 25.2054 32.2207 25.2055C32.2207 25.2056 32.2207 25.2057 32.2207 25.2058C32.2207 25.2058 32.2207 25.2059 32.2207 25.206C32.2207 25.2061 32.2207 25.2062 32.2207 25.2063C32.2207 25.2063 32.2207 25.2064 32.2207 25.2065C32.2207 25.2066 32.2207 25.2067 32.2207 25.2068C32.2207 25.2069 32.2207 25.2069 32.2207 25.207C32.2207 25.2071 32.2207 25.2072 32.2207 25.2073C32.2207 25.2074 32.2207 25.2074 32.2207 25.2075C32.2207 25.2076 32.2207 25.2077 32.2207 25.2078C32.2207 25.2079 32.2207 25.208 32.2207 25.208C32.2207 25.2081 32.2207 25.2082 32.2207 25.2083C32.2207 25.2084 32.2207 25.2085 32.2207 25.2085C32.2207 25.2086 32.2207 25.2087 32.2207 25.2088C32.2207 25.2089 32.2207 25.209 32.2207 25.209C32.2207 25.2091 32.2207 25.2092 32.2207 25.2093C32.2207 25.2094 32.2207 25.2095 32.2207 25.2096C32.2207 25.2096 32.2207 25.2097 32.2207 25.2098C32.2207 25.2099 32.2207 25.21 32.2207 25.2101C32.2207 25.2101 32.2207 25.2102 32.2207 25.2103C32.2207 25.2104 32.2207 25.2105 32.2207 25.2106C32.2207 25.2106 32.2207 25.2107 32.2207 25.2108C32.2207 25.2109 32.2207 25.211 32.2207 25.2111C32.2207 25.2111 32.2207 25.2112 32.2207 25.2113C32.2207 25.2114 32.2207 25.2115 32.2207 25.2116C32.2207 25.2116 32.2207 25.2117 32.2207 25.2118C32.2207 25.2119 32.2207 25.212 32.2207 25.2121C32.2207 25.2121 32.2207 25.2122 32.2207 25.2123C32.2207 25.2124 32.2207 25.2125 32.2207 25.2126C32.2207 25.2126 32.2207 25.2127 32.2207 25.2128C32.2207 25.2129 32.2207 25.213 32.2207 25.213C32.2207 25.2131 32.2207 25.2132 32.2207 25.2133C32.2207 25.2134 32.2207 25.2135 32.2207 25.2135C32.2207 25.2136 32.2207 25.2137 32.2207 25.2138C32.2207 25.2139 32.2207 25.214 32.2207 25.214C32.2207 25.2141 32.2207 25.2142 32.2207 25.2143C32.2207 25.2144 32.2207 25.2145 32.2207 25.2145C32.2207 25.2146 32.2207 25.2147 32.2207 25.2148C32.2207 25.2149 32.2207 25.2149 32.2207 25.215C32.2207 25.2151 32.2207 25.2152 32.2207 25.2153C32.2207 25.2154 32.2207 25.2154 32.2207 25.2155C32.2207 25.2156 32.2207 25.2157 32.2207 25.2158C32.2207 25.2158 32.2207 25.2159 32.2207 25.216C32.2207 25.2161 32.2207 25.2162 32.2207 25.2163C32.2207 25.2163 32.2207 25.2164 32.2207 25.2165C32.2207 25.2166 32.2207 25.2167 32.2207 25.2167C32.2207 25.2168 32.2207 25.2169 32.2207 25.217C32.2207 25.2171 32.2207 25.2172 32.2207 25.2172C32.2207 25.2173 32.2207 25.2174 32.2207 25.2175C32.2207 25.2176 32.2207 25.2176 32.2207 25.2177C32.2207 25.2178 32.2207 25.2179 32.2207 25.218C32.2207 25.218 32.2207 25.2181 32.2207 25.2182C32.2207 25.2183 32.2207 25.2184 32.2207 25.2185C32.2207 25.2185 32.2207 25.2186 32.2207 25.2187C32.2207 25.2188 32.2207 25.2189 32.2207 25.2189C32.2207 25.219 32.2207 25.2191 32.2207 25.2192C32.2207 25.2193 32.2207 25.2193 32.2207 25.2194C32.2207 25.2195 32.2207 25.2196 32.2207 25.2197C32.2207 25.2198 32.2207 25.2198 32.2207 25.2199C32.2207 25.22 32.2207 25.2201 32.2207 25.2202C32.2207 25.2202 32.2207 25.2203 32.2207 25.2204C32.2207 25.2205 32.2207 25.2206 32.2207 25.2206C32.2207 25.2207 32.2207 25.2208 32.2207 25.2209C32.2207 25.221 32.2207 25.221 32.2207 25.2211C32.2207 25.2212 32.2207 25.2213 32.2207 25.2214C32.2207 25.2214 32.2207 25.2215 32.2207 25.2216C32.2207 25.2217 32.2207 25.2218 32.2207 25.2218C32.2207 25.2219 32.2207 25.222 32.2207 25.2221C32.2207 25.2222 32.2207 25.2222 32.2207 25.2223C32.2207 25.2224 32.2207 25.2225 32.2207 25.2226C32.2207 25.2226 32.2207 25.2227 32.2207 25.2228C32.2207 25.2229 32.2207 25.223 32.2207 25.223C32.2207 25.2231 32.2207 25.2232 32.2207 25.2233C32.2207 25.2234 32.2207 25.2234 32.2207 25.2235C32.2207 25.2236 32.2207 25.2237 32.2207 25.2238C32.2207 25.2238 32.2207 25.2239 32.2207 25.224C32.2207 25.2241 32.2207 25.2242 32.2207 25.2242C32.2207 25.2243 32.2207 25.2244 32.2207 25.2245C32.2207 25.2245 32.2207 25.2246 32.2207 25.2247C32.2207 25.2248 32.2207 25.2249 32.2207 25.2249C32.2207 25.225 32.2207 25.2251 32.2207 25.2252C32.2207 25.2253 32.2207 25.2253 32.2207 25.2254C32.2207 25.2255 32.2207 25.2256 32.2207 25.2257C32.2207 25.2257 32.2207 25.2258 32.2207 25.2259C32.2207 25.226 32.2207 25.226 32.2207 25.2261C32.2207 25.2262 32.2207 25.2263 32.2207 25.2264C32.2207 25.2264 32.2207 25.2265 32.2207 25.2266C32.2207 25.2267 32.2207 25.2268 32.2207 25.2268C32.2207 25.2269 32.2207 25.227 32.2207 25.2271C32.2207 25.2271 32.2207 25.2272 32.2207 25.2273C32.2207 25.2274 32.2207 25.2275 32.2207 25.2275C32.2207 25.2276 32.2207 25.2277 32.2207 25.2278C32.2207 25.2279 32.2207 25.2279 32.2207 25.228C32.2207 25.2281 32.2207 25.2282 32.2207 25.2282C32.2207 25.2283 32.2207 25.2284 32.2207 25.2285C32.2207 25.2286 32.2207 25.2286 32.2207 25.2287C32.2207 25.2288 32.2207 25.2289 32.2207 25.2289C32.2207 25.229 32.2207 25.2291 32.2207 25.2292C32.2207 25.2293 32.2207 25.2293 32.2207 25.2294C32.2207 25.2295 32.2207 25.2296 32.2207 25.2296C32.2207 25.2297 32.2207 25.2298 32.2207 25.2299C32.2207 25.23 32.2207 25.23 32.2207 25.2301C32.2207 25.2302 32.2207 25.2303 32.2207 25.2303C32.2207 25.2304 32.2207 25.2305 32.2207 25.2306C32.2207 25.2307 32.2207 25.2307 32.2207 25.2308C32.2207 25.2309 32.2207 25.231 32.2207 25.231C32.2207 25.2311 32.2207 25.2312 32.2207 25.2313C32.2207 25.2313 32.2207 25.2314 32.2207 25.2315C32.2207 25.2316 32.2207 25.2317 32.2207 25.2317C32.2207 25.2318 32.2207 25.2319 32.2207 25.232C32.2207 25.232 32.2207 25.2321 32.2207 25.2322C32.2207 25.2323 32.2207 25.2323 32.2207 25.2324C32.2207 25.2325 32.2207 25.2326 32.2207 25.2327C32.2207 25.2327 32.2207 25.2328 32.2207 25.2329C32.2207 25.233 32.2207 25.233 32.2207 25.2331C32.2207 25.2332 32.2207 25.2333 32.2207 25.2333C32.2207 25.2334 32.2207 25.2335 32.2207 25.2336C32.2207 25.2336 32.2207 25.2337 32.2207 25.2338C32.2207 25.2339 32.2207 25.234 32.2207 25.234C32.2207 25.2341 32.2207 25.2342 32.2207 25.2343C32.2207 25.2343 32.2207 25.2344 32.2207 25.2345C32.2207 25.2346 32.2207 25.2346 32.2207 25.2347C32.2207 25.2348 32.2207 25.2349 32.2207 25.2349C32.2207 25.235 32.2207 25.2351 32.2207 25.2352C32.2207 25.2352 32.2207 25.2353 32.2207 25.2354C32.2207 25.2355 32.2207 25.2355 32.2207 25.2356C32.2207 25.2357 32.2207 25.2358 32.2207 25.2359C32.2207 25.2359 32.2207 25.236 32.2207 25.2361C32.2207 25.2362 32.2207 25.2362 32.2207 25.2363C32.2207 25.2364 32.2207 25.2365 32.2207 25.2365C32.2207 25.2366 32.2207 25.2367 32.2207 25.2368C32.2207 25.2368 32.2207 25.2369 32.2207 25.237C32.2207 25.2371 32.2207 25.2371 32.2207 25.2372C32.2207 25.2373 32.2207 25.2374 32.2207 25.2374C32.2207 25.2375 32.2207 25.2376 32.2207 25.2377C32.2207 25.2377 32.2207 25.2378 32.2207 25.2379C32.2207 25.238 32.2207 25.238 32.2207 25.2381C32.2207 25.2382 32.2207 25.2383 32.2207 25.2383C32.2207 25.2384 32.2207 25.2385 32.2207 25.2386C32.2207 25.2386 32.2207 25.2387 32.2207 25.2388C32.2207 25.2389 32.2207 25.2389 32.2207 25.239C32.2207 25.2391 32.2207 25.2392 32.2207 25.2392C32.2207 25.2393 32.2207 25.2394 32.2207 25.2395C32.2207 25.2395 32.2207 25.2396 32.2207 25.2397C32.2207 25.2397 32.2207 25.2398 32.2207 25.2399C32.2207 25.24 32.2207 25.24 32.2207 25.2401C32.2207 25.2402 32.2207 25.2403 32.2207 25.2403C32.2207 25.2404 32.2207 25.2405 32.2207 25.2406C32.2207 25.2406 32.2207 25.2407 32.2207 25.2408C32.2207 25.2409 32.2207 25.2409 32.2207 25.241C32.2207 25.2411 32.2207 25.2412 32.2207 25.2412C32.2207 25.2413 32.2207 25.2414 32.2207 25.2415C32.2207 25.2415 32.2207 25.2416 32.2207 25.2417C32.2207 25.2417 32.2207 25.2418 32.2207 25.2419C32.2207 25.242 32.2207 25.242 32.2207 25.2421C32.2207 25.2422 32.2207 25.2423 32.2207 25.2423C32.2207 25.2424 32.2207 25.2425 32.2207 25.2426C32.2207 25.2426 32.2207 25.2427 32.2207 25.2428C32.2207 25.2428 32.2207 25.2429 32.2207 25.243C32.2207 25.2431 32.2207 25.2431 32.2207 25.2432C32.2207 25.2433 32.2207 25.2434 32.2207 25.2434C32.2207 25.2435 32.2207 25.2436 32.2207 25.2437C32.2207 25.2437 32.2207 25.2438 32.2207 25.2439C32.2207 25.2439 32.2207 25.244 32.2207 25.2441C32.2207 25.2442 32.2207 25.2442 32.2207 25.2443C32.2207 25.2444 32.2207 25.2445 32.2207 25.2445C32.2207 25.2446 32.2207 25.2447 32.2207 25.2447C32.2207 25.2448 32.2207 25.2449 32.2207 25.245C32.2207 25.245 32.2207 25.2451 32.2207 25.2452C32.2207 25.2453 32.2207 25.2453 32.2207 25.2454C32.2207 25.2455 32.2207 25.2455 32.2207 25.2456C32.2207 25.2457 32.2207 25.2458 32.2207 25.2458C32.2207 25.2459 32.2207 25.246 32.2207 25.246C32.2207 25.2461 32.2207 25.2462 32.2207 25.2463C32.2207 25.2463 32.2207 25.2464 32.2207 25.2465C32.2207 25.2466 32.2207 25.2466 32.2207 25.2467C32.2207 25.2468 32.2207 25.2468 32.2207 25.2469C32.2207 25.247 32.2207 25.2471 32.2207 25.2471C32.2207 25.2472 32.2207 25.2473 32.2207 25.2473C32.2207 25.2474 32.2207 25.2475 32.2207 25.2476C32.2207 25.2476 32.2207 25.2477 32.2207 25.2478C32.2207 25.2478 32.2207 25.2479 32.2207 25.248C32.2207 25.2481 32.2207 25.2481 32.2207 25.2482C32.2207 25.2483 32.2207 25.2483 32.2207 25.2484C32.2207 25.2485 32.2207 25.2486 32.2207 25.2486C32.2207 25.2487 32.2207 25.2488 32.2207 25.2488C32.2207 25.2489 32.2207 25.249 32.2207 25.2491C32.2207 25.2491 32.2207 25.2492 32.2207 25.2493C32.2207 25.2493 32.2207 25.2494 32.2207 25.2495C32.2207 25.2496 32.2207 25.2496 32.2207 25.2497C32.2207 25.2498 32.2207 25.2498 32.2207 25.2499C32.2207 25.25 32.2207 25.25 32.2207 25.2501C32.2207 25.2502 32.2207 25.2503 32.2207 25.2503C32.2207 25.2504 32.2207 25.2505 32.2207 25.2505C32.2207 25.2506 32.2207 25.2507 32.2207 25.2508C32.2207 25.2508 32.2207 25.2509 32.2207 25.251C32.2207 25.251 32.2207 25.2511 32.2207 25.2512C32.2207 25.2512 32.2207 25.2513 32.2207 25.2514C32.2207 25.2515 32.2207 25.2515 32.2207 25.2516C32.2207 25.2517 32.2207 25.2517 32.2207 25.2518C32.2207 25.2519 32.2207 25.252 32.2207 25.252C32.2207 25.2521 32.2207 25.2522 32.2207 25.2522C32.2207 25.2523 32.2207 25.2524 32.2207 25.2524C32.2207 25.2525 32.2207 25.2526 32.2207 25.2527C32.2207 25.2527 32.2207 25.2528 32.2207 25.2529C32.2207 25.2529 32.2207 25.253 32.2207 25.2531C32.2207 25.2531 32.2207 25.2532 32.2207 25.2533C32.2207 25.2533 32.2207 25.2534 32.2207 25.2535C32.2207 25.2536 32.2207 25.2536 32.2207 25.2537C32.2207 25.2538 32.2207 25.2538 32.2207 25.2539C32.2207 25.254 32.2207 25.254 32.2207 25.2541C32.2207 25.2542 32.2207 25.2543 32.2207 25.2543C32.2207 25.2544 32.2207 25.2545 32.2207 25.2545C32.2207 25.2546 32.2207 25.2547 32.2207 25.2547C32.2207 25.2548 32.2207 25.2549 32.2207 25.2549C32.2207 25.255 32.2207 25.2551 32.2207 25.2552C32.2207 25.2552 32.2207 25.2553 32.2207 25.2554C32.2207 25.2554 32.2207 25.2555 32.2207 25.2556C32.2207 25.2556 32.2207 25.2557 32.2207 25.2558C32.2207 25.2558 32.2207 25.2559 32.2207 25.256C32.2207 25.256 32.2207 25.2561 32.2207 25.2562C32.2207 25.2563 32.2207 25.2563 32.2207 25.2564C32.2207 25.2565 32.2207 25.2565 32.2207 25.2566C32.2207 25.2567 32.2207 25.2567 32.2207 25.2568C32.2207 25.2569 32.2207 25.2569 32.2207 25.257C32.2207 25.2571 32.2207 25.2571 32.2207 25.2572C32.2207 25.2573 32.2207 25.2573 32.2207 25.2574C32.2207 25.2575 32.2207 25.2575 32.2207 25.2576C32.2207 25.2577 32.2207 25.2578 32.2207 25.2578C32.2207 25.2579 32.2207 25.258 32.2207 25.258C32.2207 25.2581 32.2207 25.2582 32.2207 25.2582C32.2207 25.2583 32.2207 25.2584 32.2207 25.2584C32.2207 25.2585 32.2207 25.2586 32.2207 25.2586C32.2207 25.2587 32.2207 25.2588 32.2207 25.2588C32.2207 25.2589 32.2207 25.259 32.2207 25.259C32.2207 25.2591 32.2207 25.2592 32.2207 25.2592C32.2207 25.2593 32.2207 25.2594 32.2207 25.2594C32.2207 25.2595 32.2207 25.2596 32.2207 25.2596C32.2207 25.2597 32.2207 25.2598 32.2207 25.2598C32.2207 25.2599 32.2207 25.26 32.2207 25.2601C32.2207 25.2601 32.2207 25.2602 32.2207 25.2603C32.2207 25.2603 32.2207 25.2604 32.2207 25.2605C32.2207 25.2605 32.2207 25.2606 32.2207 25.2607C32.2207 25.2607 32.2207 25.2608 32.2207 25.2609C32.2207 25.2609 32.2207 25.261 32.2207 25.2611C32.2207 25.2611 32.2207 25.2612 32.2207 25.2613C32.2207 25.2613 32.2207 25.2614 32.2207 25.2615C32.2207 25.2615 32.2207 25.2616 32.2207 25.2617C32.2207 25.2617 32.2207 25.2618 32.2207 25.2619C32.2207 25.2619 32.2207 25.262 32.2207 25.2621C32.2207 25.2621 32.2207 25.2622 32.2207 25.2623C32.2207 25.2623 32.2207 25.2624 32.2207 25.2625C32.2207 25.2625 32.2207 25.2626 32.2207 25.2627C32.2207 25.2627 32.2207 25.2628 32.2207 25.2629C32.2207 25.2629 32.2207 25.263 32.2207 25.263C32.2207 25.2631 32.2207 25.2632 32.2207 25.2632C32.2207 25.2633 32.2207 25.2634 32.2207 25.2634C32.2207 25.2635 32.2207 25.2636 32.2207 25.2636C32.2207 25.2637 32.2207 25.2638 32.2207 25.2638C32.2207 25.2639 32.2207 25.264 32.2207 25.264C32.2207 25.2641 32.2207 25.2642 32.2207 25.2642C32.2207 25.2643 32.2207 25.2644 32.2207 25.2644C32.2207 25.2645 32.2207 25.2646 32.2207 25.2646C32.2207 25.2647 32.2207 25.2648 32.2207 25.2648C32.2207 25.2649 32.2207 25.265 32.2207 25.265C32.2207 25.2651 32.2207 25.2652 32.2207 25.2652C32.2207 25.2653 32.2207 25.2653 32.2207 25.2654C32.2207 25.2655 32.2207 25.2655 32.2207 25.2656C32.2207 25.2657 32.2207 25.2657 32.2207 25.2658C32.2207 25.2659 32.2207 25.2659 32.2207 25.266C32.2207 25.2661 32.2207 25.2661 32.2207 25.2662C32.2207 25.2663 32.2207 25.2663 32.2207 25.2664C32.2207 25.2665 32.2207 25.2665 32.2207 25.2666C32.2207 25.2666 32.2207 25.2667 32.2207 25.2668C32.2207 25.2668 32.2207 25.2669 32.2207 25.267C32.2207 25.267 32.2207 25.2671 32.2207 25.2672C32.2207 25.2672 32.2207 25.2673 32.2207 25.2674C32.2207 25.2674 32.2207 25.2675 32.2207 25.2675C32.2207 25.2676 32.2207 25.2677 32.2207 25.2677C32.2207 25.2678 32.2207 25.2679 32.2207 25.2679C32.2207 25.268 32.2207 25.2681 32.2207 25.2681C32.2207 25.2682 32.2207 25.2683 32.2207 25.2683C32.2207 25.2684 32.2207 25.2684 32.2207 25.2685C32.2207 25.2686 32.2207 25.2686 32.2207 25.2687C32.2207 25.2688 32.2207 25.2688 32.2207 25.2689C32.2207 25.269 32.2207 25.269 32.2207 25.2691C32.2207 25.2691 32.2207 25.2692 32.2207 25.2693C32.2207 25.2693 32.2207 25.2694 32.2207 25.2695C32.2207 25.2695 32.2207 25.2696 32.2207 25.2697C32.2207 25.2697 32.2207 25.2698 32.2207 25.2698C32.2207 25.2699 32.2207 25.27 32.2207 25.27C32.2207 25.2701 32.2207 25.2702 32.2207 25.2702C32.2207 25.2703 32.2207 25.2704 32.2207 25.2704C32.2207 25.2705 32.2207 25.2705 32.2207 25.2706C32.2207 25.2707 32.2207 25.2707 32.2207 25.2708C32.2207 25.2709 32.2207 25.2709 32.2207 25.271C32.2207 25.271 32.2207 25.2711 32.2207 25.2712C32.2207 25.2712 32.2207 25.2713 32.2207 25.2714C32.2207 25.2714 32.2207 25.2715 32.2207 25.2716C32.2207 25.2716 32.2207 25.2717 32.2207 25.2717C32.2207 25.2718 32.2207 25.2719 32.2207 25.2719C32.2207 25.272 32.2207 25.2721 32.2207 25.2721C32.2207 25.2722 32.2207 25.2722 32.2207 25.2723C32.2207 25.2724 32.2207 25.2724 32.2207 25.2725C32.2207 25.2726 32.2207 25.2726 32.2207 25.2727C32.2207 25.2727 32.2207 25.2728 32.2207 25.2729C32.2207 25.2729 32.2207 25.273 32.2207 25.2731C32.2207 25.2731 32.2207 25.2732 32.2207 25.2732C32.2207 25.2733 32.2207 25.2734 32.2207 25.2734C32.2207 25.2735 32.2207 25.2735 32.2207 25.2736C32.2207 25.2737 32.2207 25.2737 32.2207 25.2738C32.2207 25.2739 32.2207 25.2739 32.2207 25.274C32.2207 25.274 32.2207 25.2741 32.2207 25.2742C32.2207 25.2742 32.2207 25.2743 32.2207 25.2744C32.2207 25.2744 32.2207 25.2745 32.2207 25.2745C32.2207 25.2746 32.2207 25.2747 32.2207 25.2747C32.2207 25.2748 32.2207 25.2748 32.2207 25.2749C32.2207 25.275 32.2207 25.275 32.2207 25.2751C32.2207 25.2752 32.2207 25.2752 32.2207 25.2753C32.2207 25.2753 32.2207 25.2754 32.2207 25.2755C32.2207 25.2755 32.2207 25.2756 32.2207 25.2756C32.2207 25.2757 32.2207 25.2758 32.2207 25.2758C32.2207 25.2759 32.2207 25.2759 32.2207 25.276C32.2207 25.2761 32.2207 25.2761 32.2207 25.2762C32.2207 25.2763 32.2207 25.2763 32.2207 25.2764C32.2207 25.2764 32.2207 25.2765 32.2207 25.2766C32.2207 25.2766 32.2207 25.2767 32.2207 25.2767C32.2207 25.2768 32.2207 25.2769 32.2207 25.2769C32.2207 25.277 32.2207 25.277 32.2207 25.2771C32.2207 25.2772 32.2207 25.2772 32.2207 25.2773C32.2207 25.2773 32.2207 25.2774 32.2207 25.2775C32.2207 25.2775 32.2207 25.2776 32.2207 25.2776C32.2207 25.2777 32.2207 25.2778 32.2207 25.2778C32.2207 25.2779 32.2207 25.2779 32.2207 25.278C32.2207 25.2781 32.2207 25.2781 32.2207 25.2782C32.2207 25.2782 32.2207 25.2783 32.2207 25.2784C32.2207 25.2784 32.2207 25.2785 32.2207 25.2785C32.2207 25.2786 32.2207 25.2787 32.2207 25.2787C32.2207 25.2788 32.2207 25.2788 32.2207 25.2789C32.2207 25.279 32.2207 25.279 32.2207 25.2791C32.2207 25.2791 32.2207 25.2792 32.2207 25.2793C32.2207 25.2793 32.2207 25.2794 32.2207 25.2794C32.2207 25.2795 32.2207 25.2796 32.2207 25.2796C32.2207 25.2797 32.2207 25.2797 32.2207 25.2798C32.2207 25.2799 32.2207 25.2799 32.2207 25.28C32.2207 25.28 32.2207 25.2801 32.2207 25.2802C32.2207 25.2802 32.2207 25.2803 32.2207 25.2803C32.2207 25.2804 32.2207 25.2805 32.2207 25.2805C32.2207 25.2806 32.2207 25.2806 32.2207 25.2807C32.2207 25.2808 32.2207 25.2808 32.2207 25.2809C32.2207 25.2809 32.2207 25.281 32.2207 25.281C32.2207 25.2811 32.2207 25.2812 32.2207 25.2812C32.2207 25.2813 32.2207 25.2813 32.2207 25.2814C32.2207 25.2815 32.2207 25.2815 32.2207 25.2816C32.2207 25.2816 32.2207 25.2817 32.2207 25.2818C32.2207 25.2818 32.2207 25.2819 32.2207 25.2819C32.2207 25.282 32.2207 25.282 32.2207 25.2821C32.2207 25.2822 32.2207 25.2822 32.2207 25.2823C32.2207 25.2823 32.2207 25.2824 32.2207 25.2825C32.2207 25.2825 32.2207 25.2826 32.2207 25.2826C32.2207 25.2827 32.2207 25.2827 32.2207 25.2828C32.2207 25.2829 32.2207 25.2829 32.2207 25.283C32.2207 25.283 32.2207 25.2831 32.2207 25.2831C32.2207 25.2832 32.2207 25.2833 32.2207 25.2833C32.2207 25.2834 32.2207 25.2834 32.2207 25.2835C32.2207 25.2836 32.2207 25.2836 32.2207 25.2837C32.2207 25.2837 32.2207 25.2838 32.2207 25.2838C32.2207 25.2839 32.2207 25.284 32.2207 25.284C32.2207 25.2841 32.2207 25.2841 32.2207 25.2842C32.2207 25.2842 32.2207 25.2843 32.2207 25.2844C32.2207 25.2844 32.2207 25.2845 32.2207 25.2845C32.2207 25.2846 32.2207 25.2846 32.2207 25.2847C32.2207 25.2848 32.2207 25.2848 32.2207 25.2849C32.2207 25.2849 32.2207 25.285 32.2207 25.2851C32.2207 25.2851 32.2207 25.2852 32.2207 25.2852C32.2207 25.2853 32.2207 25.2853 32.2207 25.2854C32.2207 25.2855 32.2207 25.2855 32.2207 25.2856C32.2207 25.2856 32.2207 25.2857 32.2207 25.2857C32.2207 25.2858 32.2207 25.2858 32.2207 25.2859C32.2207 25.286 32.2207 25.286 32.2207 25.2861C32.2207 25.2861 32.2207 25.2862 32.2207 25.2862C32.2207 25.2863 32.2207 25.2864 32.2207 25.2864C32.2207 25.2865 32.2207 25.2865 32.2207 25.2866C32.2207 25.2866 32.2207 25.2867 32.2207 25.2868C32.2207 25.2868 32.2207 25.2869 32.2207 25.2869C32.2207 25.287 32.2207 25.287 32.2207 25.2871C32.2207 25.2871 32.2207 25.2872 32.2207 25.2873C32.2207 25.2873 32.2207 25.2874 32.2207 25.2874C32.2207 25.2875 32.2207 25.2875 32.2207 25.2876C32.2207 25.2877 32.2207 25.2877 32.2207 25.2878C32.2207 25.2878 32.2207 25.2879 32.2207 25.2879C32.2207 25.288 32.2207 25.288 32.2207 25.2881C32.2207 25.2882 32.2207 25.2882 32.2207 25.2883C32.2207 25.2883 32.2207 25.2884 32.2207 25.2884C32.2207 25.2885 32.2207 25.2885 32.2207 25.2886C32.2207 25.2887 32.2207 25.2887 32.2207 25.2888C32.2207 25.2888 32.2207 25.2889 32.2207 25.2889C32.2207 25.289 32.2207 25.289 32.2207 25.2891C32.2207 25.2892 32.2207 25.2892 32.2207 25.2893C32.2207 25.2893 32.2207 25.2894 32.2207 25.2894C32.2207 25.2895 32.2207 25.2895 32.2207 25.2896C32.2207 25.2897 32.2207 25.2897 32.2207 25.2898C32.2207 25.2898 32.2207 25.2899 32.2207 25.2899C32.2207 25.29 32.2207 25.29 32.2207 25.2901C32.2207 25.2902 32.2207 25.2902 32.2207 25.2903C32.2207 25.2903 32.2207 25.2904 32.2207 25.2904C32.2207 25.2905 32.2207 25.2905 32.2207 25.2906C32.2207 25.2906 32.2207 25.2907 32.2207 25.2908C32.2207 25.2908 32.2207 25.2909 32.2207 25.2909C32.2207 25.291 32.2207 25.291 32.2207 25.2911C32.2207 25.2911 32.2207 25.2912 32.2207 25.2912C32.2207 25.2913 32.2207 25.2914 32.2207 25.2914C32.2207 25.2915 32.2207 25.2915 32.2207 25.2916C32.2207 25.2916 32.2207 25.2917 32.2207 25.2917C32.2207 25.2918 32.2207 25.2918 32.2207 25.2919C32.2207 25.292 32.2207 25.292 32.2207 25.2921C32.2207 25.2921 32.2207 25.2922 32.2207 25.2922C32.2207 25.2923 32.2207 25.2923 32.2207 25.2924C32.2207 25.2924 32.2207 25.2925 32.2207 25.2925C32.2207 25.2926 32.2207 25.2927 32.2207 25.2927C32.2207 25.2928 32.2207 25.2928 32.2207 25.2929C32.2207 25.2929 32.2207 25.293 32.2207 25.293C32.2207 25.2931 32.2207 25.2931 32.2207 25.2932C32.2207 25.2932 32.2207 25.2933 32.2207 25.2934C32.2207 25.2934 32.2207 25.2935 32.2207 25.2935C32.2207 25.2936 32.2207 25.2936 32.2207 25.2937C32.2207 25.2937 32.2207 25.2938 32.2207 25.2938C32.2207 25.2939 32.2207 25.2939 32.2207 25.294C32.2207 25.294 32.2207 25.2941 32.2207 25.2941C32.2207 25.2942 32.2207 25.2943 32.2207 25.2943C32.2207 25.2944 32.2207 25.2944 32.2207 25.2945C32.2207 25.2945 32.2207 25.2946 32.2207 25.2946C32.2207 25.2947 32.2207 25.2947 32.2207 25.2948C32.2207 25.2948 32.2207 25.2949 32.2207 25.2949C32.2207 25.295 32.2207 25.295 32.2207 25.2951C32.2207 25.2952 32.2207 25.2952 32.2207 25.2953C32.2207 25.2953 32.2207 25.2954 32.2207 25.2954C32.2207 25.2955 32.2207 25.2955 32.2207 25.2956C32.2207 25.2956 32.2207 25.2957 32.2207 25.2957C32.2207 25.2958 32.2207 25.2958 32.2207 25.2959C32.2207 25.2959 32.2207 25.296 32.2207 25.296C32.2207 25.2961 32.2207 25.2961 32.2207 25.2962C32.2207 25.2963 32.2207 25.2963 32.2207 25.2964C32.2207 25.2964 32.2207 25.2965 32.2207 25.2965C32.2207 25.2966 32.2207 25.2966 32.2207 25.2967C32.2207 25.2967 32.2207 25.2968 32.2207 25.2968C32.2207 25.2969 32.2207 25.2969 32.2207 25.297C32.2207 25.297 32.2207 25.2971 32.2207 25.2971C32.2207 25.2972 32.2207 25.2972 32.2207 25.2973C32.2207 25.2973 32.2207 25.2974 32.2207 25.2974C32.2207 25.2975 32.2207 25.2975 32.2207 25.2976C32.2207 25.2977 32.2207 25.2977 32.2207 25.2978C32.2207 25.2978 32.2207 25.2979 32.2207 25.2979C32.2207 25.298 32.2207 25.298 32.2207 25.2981C32.2207 25.2981 32.2207 25.2982 32.2207 25.2982C32.2207 25.2983 32.2207 25.2983 32.2207 25.2984C32.2207 25.2984 32.2207 25.2985 32.2207 25.2985C32.2207 25.2986 32.2207 25.2986 32.2207 25.2987C32.2207 25.2987 32.2207 25.2988 32.2207 25.2988H34.2207ZM34.2207 25.1914L36.2006 25.4742C36.2372 25.2178 36.2272 24.9906 36.2108 24.8264L34.2207 25.0254L32.2306 25.2244C32.2284 25.2024 32.2256 25.1652 32.2256 25.1157C32.2256 25.067 32.2283 24.9959 32.2408 24.9086L34.2207 25.1914ZM34.2207 25.0254L35.7475 26.3173C35.7181 26.352 35.6965 26.3723 35.6886 26.3794C35.6806 26.3867 35.6818 26.3848 35.6957 26.3745C35.7255 26.3525 35.7882 26.3105 35.8961 26.2512L34.9336 24.498L33.9711 22.7449C33.5544 22.9737 33.0691 23.2901 32.6939 23.7335L34.2207 25.0254ZM34.9336 24.498L35.8961 26.2512C36.0732 26.154 36.3129 26.0536 36.6316 25.9632L36.0859 24.0391L35.5403 22.1149C34.9866 22.272 34.458 22.4775 33.9711 22.7449L34.9336 24.498ZM36.0859 24.0391L36.6241 25.9653C36.8984 25.8887 37.1601 25.8535 37.4141 25.8535V23.8535V21.8535C36.7826 21.8535 36.1589 21.9421 35.5477 22.1128L36.0859 24.0391ZM37.4141 23.8535V25.8535C37.7022 25.8535 37.8623 25.8902 37.9328 25.9141C37.9921 25.9341 37.966 25.9366 37.9206 25.8883L39.377 24.5176L40.8334 23.1468C39.8917 22.1464 38.5982 21.8535 37.4141 21.8535V23.8535ZM39.377 24.5176L37.9307 25.899C37.8492 25.8137 38.002 25.8863 38.002 26.5293H40.002H42.002C42.002 25.3624 41.7381 24.0939 40.8232 23.1361L39.377 24.5176ZM40.002 26.5293H38.002C38.002 26.9845 37.9391 27.5908 37.7857 28.3693L39.748 28.7559L41.7103 29.1424C41.8955 28.2021 42.002 27.3241 42.002 26.5293H40.002ZM39.748 28.7559L37.7857 28.3693C37.6345 29.1373 37.4197 29.9437 37.1378 30.7894L39.0352 31.4219L40.9325 32.0543C41.2626 31.0641 41.5231 30.0931 41.7103 29.1424L39.748 28.7559ZM39.0352 31.4219L37.1378 30.7894C36.9447 31.3687 36.6407 32.1341 36.2114 33.0998L38.0391 33.9121L39.8667 34.7244C40.3229 33.698 40.6829 32.8032 40.9325 32.0543L39.0352 31.4219ZM38.0391 33.9121L36.2134 33.0954C35.7937 34.0337 35.3444 34.9318 34.8661 35.7903L36.6133 36.7637L38.3604 37.7371C38.8978 36.7726 39.399 35.7697 39.8647 34.7288L38.0391 33.9121ZM36.6133 36.7637L34.8608 35.7998C34.3881 36.6594 34.0159 37.2035 33.7494 37.5087L35.2559 38.8242L36.7623 40.1397C37.3031 39.5205 37.8359 38.6909 38.3657 37.7275L36.6133 36.7637ZM35.2559 38.8242L34.1598 37.1513C34.1859 37.1342 34.2016 37.128 34.2006 37.1284C34.1992 37.129 34.1817 37.1358 34.1435 37.1442L34.5723 39.0977L35.0011 41.0511C35.457 40.9511 35.9217 40.779 36.3519 40.4971L35.2559 38.8242ZM34.5723 39.0977L34.0984 37.1546C33.982 37.183 33.8741 37.1953 33.7715 37.1953V39.1953V41.1953C34.2027 41.1953 34.6287 41.1425 35.0462 41.0407L34.5723 39.0977ZM33.7715 39.1953V37.1953C33.5891 37.1953 33.3816 37.1699 33.1442 37.1066L32.6289 39.0391L32.1136 40.9715C32.6574 41.1166 33.2117 41.1953 33.7715 41.1953V39.1953ZM32.6289 39.0391L33.1217 37.1007C32.9056 37.0458 32.7525 36.9771 32.6434 36.9107L31.6035 38.6191L30.5636 40.3275C31.0535 40.6257 31.584 40.837 32.1361 40.9774L32.6289 39.0391ZM31.6035 38.6191L32.6601 36.921C32.5838 36.8735 32.6846 36.9146 32.7771 37.0997L30.9883 37.9941L29.1994 38.8886C29.5264 39.5424 30.0373 40.0002 30.5469 40.3173L31.6035 38.6191ZM30.9883 37.9941L32.9035 38.5703L33.2648 37.3691L31.3496 36.793L29.4344 36.2168L29.0731 37.418L30.9883 37.9941ZM43.166 28.1504L44.2055 29.8591L44.2158 29.8527L43.166 28.1504ZM49.1719 28.1602L48.0726 29.831L48.0829 29.8377L49.1719 28.1602ZM50.7246 30.1719L48.8315 30.8172L48.836 30.83L50.7246 30.1719ZM50.5781 36.3438L48.7533 35.5252L48.7505 35.5315L50.5781 36.3438ZM48.8008 38.4336L49.8844 40.1146L49.8879 40.1124L48.8008 38.4336ZM42.0527 37.5645L40.4344 38.7397L40.4378 38.7442L42.0527 37.5645ZM46.9062 36.2559L48.0826 37.8733L48.4275 37.6225L48.6401 37.2528L46.9062 36.2559ZM47.2676 32.1836L45.2883 32.4705L45.2889 32.4746L47.2676 32.1836ZM46.9941 31.1289L48.8101 30.2908L48.6963 30.0443L48.5209 29.837L46.9941 31.1289ZM46.5645 30.9434L46.1494 32.8998L46.178 32.9059L46.2067 32.9111L46.5645 30.9434ZM45.1777 30.9824L44.1757 29.2516L43.7158 29.5178L43.4487 29.9772L45.1777 30.9824ZM45.0703 36.0801L43.1437 36.617L43.2733 37.082L43.6007 37.4366L45.0703 36.0801ZM45.5488 36.2754L45.177 38.2405L45.2028 38.2454L45.2287 38.2496L45.5488 36.2754ZM40.8613 33.2285H42.8613C42.8613 32.2593 43.017 31.5211 43.261 30.9616L41.4277 30.1621L39.5945 29.3626C39.0833 30.5349 38.8613 31.841 38.8613 33.2285H40.8613ZM41.4277 30.1621L43.261 30.9616C43.4797 30.46 43.7883 30.1128 44.2055 29.8591L43.166 28.1504L42.1266 26.4417C40.9812 27.1385 40.1309 28.1325 39.5945 29.3626L41.4277 30.1621ZM43.166 28.1504L44.2158 29.8527C44.6035 29.6136 45.1942 29.4277 46.1055 29.4277V27.4277V25.4277C44.66 25.4277 43.291 25.7236 42.1162 26.448L43.166 28.1504ZM46.1055 27.4277V29.4277C47.1889 29.4277 47.7758 29.6357 48.0726 29.831L49.1719 28.1602L50.2711 26.4893C49.0836 25.7081 47.6262 25.4277 46.1055 25.4277V27.4277ZM49.1719 28.1602L48.0829 29.8377C48.4385 30.0685 48.6792 30.3704 48.8316 30.8172L50.7246 30.1719L52.6176 29.5265C52.184 28.2546 51.3897 27.2154 50.2608 26.4826L49.1719 28.1602ZM50.7246 30.1719L48.836 30.83C49.0402 31.4161 49.1738 32.2304 49.1738 33.3262H51.1738H53.1738C53.1738 31.9349 53.0079 30.6464 52.6132 29.5137L50.7246 30.1719ZM51.1738 33.3262H49.1738C49.1738 34.2153 49.0179 34.9354 48.7533 35.5253L50.5781 36.3438L52.403 37.1622C52.9327 35.9813 53.1738 34.6896 53.1738 33.3262H51.1738ZM50.5781 36.3438L48.7505 35.5315C48.5147 36.062 48.1767 36.455 47.7137 36.7548L48.8008 38.4336L49.8879 40.1124C51.0134 39.3835 51.8603 38.3833 52.4057 37.156L50.5781 36.3438ZM48.8008 38.4336L47.7172 36.7526C47.3178 37.01 46.7479 37.1953 45.9004 37.1953V39.1953V41.1953C47.3446 41.1953 48.7082 40.8728 49.8844 40.1146L48.8008 38.4336ZM45.9004 39.1953V37.1953C44.5476 37.1953 43.972 36.8012 43.6677 36.3847L42.0527 37.5645L40.4378 38.7442C41.722 40.5022 43.7115 41.1953 45.9004 41.1953V39.1953ZM42.0527 37.5645L43.671 36.3893C43.1951 35.7338 42.8613 34.7409 42.8613 33.2285H40.8613H38.8613C38.8613 35.3099 39.3218 37.2076 40.4344 38.7397L42.0527 37.5645ZM46.3008 36.334V38.334C46.5062 38.334 46.7354 38.3266 46.9571 38.298C47.0638 38.2842 47.5965 38.2269 48.0826 37.8733L46.9062 36.2559L45.7299 34.6384C45.8652 34.54 45.9876 34.4786 46.0717 34.4419C46.1579 34.4041 46.2301 34.3809 46.2787 34.367C46.3719 34.3404 46.4349 34.3322 46.4452 34.3309C46.4652 34.3283 46.4274 34.334 46.3008 34.334V36.334ZM46.9062 36.2559L48.6401 37.2528C48.9596 36.6971 49.1251 36.0634 49.2216 35.4768L47.248 35.1523L45.2745 34.8279C45.2468 34.9965 45.2177 35.1151 45.1935 35.1929C45.1687 35.273 45.1564 35.2868 45.1724 35.2589L46.9062 36.2559ZM47.248 35.1523L49.2216 35.4768C49.3197 34.8798 49.3652 34.2558 49.3652 33.6094H47.3652H45.3652C45.3652 34.0697 45.3327 34.4743 45.2745 34.8279L47.248 35.1523ZM47.3652 33.6094H49.3652C49.3652 33.0169 49.3273 32.4435 49.2463 31.8926L47.2676 32.1836L45.2889 32.4746C45.3381 32.8091 45.3652 33.1862 45.3652 33.6094H47.3652ZM47.2676 32.1836L49.2469 31.8967C49.1691 31.3597 49.0423 30.794 48.8101 30.2908L46.9941 31.1289L45.1782 31.967C45.1746 31.9592 45.1904 31.9924 45.2144 32.0849C45.2377 32.175 45.2637 32.3013 45.2883 32.4705L47.2676 32.1836ZM46.9941 31.1289L48.5209 29.837C47.9716 29.1878 47.2164 29.0291 46.9222 28.9756L46.5645 30.9434L46.2067 32.9111C46.219 32.9133 46.1511 32.9031 46.0401 32.8552C45.9366 32.8104 45.6952 32.69 45.4674 32.4208L46.9941 31.1289ZM46.5645 30.9434L46.9795 28.9869C46.609 28.9083 46.2336 28.875 45.8613 28.875V30.875V32.875C45.9969 32.875 46.0902 32.8873 46.1494 32.8998L46.5645 30.9434ZM45.8613 30.875V28.875C45.6324 28.875 45.3814 28.8867 45.1309 28.9261C44.9044 28.9617 44.5417 29.0397 44.1757 29.2516L45.1777 30.9824L46.1798 32.7133C46.0477 32.7898 45.9371 32.829 45.8745 32.8481C45.8095 32.868 45.7654 32.8755 45.7519 32.8776C45.7293 32.8812 45.7583 32.875 45.8613 32.875V30.875ZM45.1777 30.9824L43.4487 29.9772C42.8749 30.9642 42.6895 32.1414 42.6895 33.3164H44.6895H46.6895C46.6895 32.4992 46.8295 32.1205 46.9067 31.9877L45.1777 30.9824ZM44.6895 33.3164H42.6895C42.6895 33.8872 42.7331 34.4628 42.818 35.0422L44.7969 34.752L46.7757 34.4617C46.7174 34.0645 46.6895 33.6831 46.6895 33.3164H44.6895ZM44.7969 34.752L42.818 35.0422C42.8996 35.5981 43.0066 36.1249 43.1437 36.617L45.0703 36.0801L46.9969 35.5432C46.9127 35.241 46.8374 34.8824 46.7757 34.4617L44.7969 34.752ZM45.0703 36.0801L43.6007 37.4366C44.155 38.0371 44.8998 38.1881 45.177 38.2405L45.5488 36.2754L45.9206 34.3103C45.8814 34.3028 45.9204 34.3064 46.0043 34.3407C46.0732 34.3688 46.3065 34.4707 46.5399 34.7235L45.0703 36.0801ZM45.5488 36.2754L45.2287 38.2496C45.5822 38.3069 45.9402 38.334 46.3008 38.334V36.334V34.334C46.1405 34.334 45.9972 34.322 45.869 34.3012L45.5488 36.2754Z" fill="#343B6E" mask="url(#path-2-outside-1_260_529)"/>
</svg>
