<svg width="49" height="48" viewBox="0 0 49 48" fill="none" xmlns="http://www.w3.org/2000/svg">
<path d="M23.1554 3.42188C22.1522 3.69375 20.8022 4.50937 19.2647 5.78437C18.1022 6.74062 15.6085 9.25312 13.9397 11.1562C13.1897 12.0094 12.2335 13.0781 11.8022 13.5469C11.371 14.0062 10.8272 14.6719 10.5929 15.0187L10.1522 15.6562H9.01787C7.18037 15.6562 5.50224 16.05 4.54599 16.6969C3.85224 17.1656 3.08349 18.3562 2.74599 19.5C2.48349 20.3625 2.36162 22.6875 2.48349 24.5156C2.67099 27.2437 3.01787 28.8656 3.64599 29.8969C4.42412 31.1812 6.45849 31.8562 9.16787 31.7156L10.1522 31.6594L10.6491 32.4C13.1616 36.1125 18.3554 41.9531 20.7272 43.7344C21.6929 44.4656 22.2929 44.7188 23.0335 44.7188C25.3679 44.7188 26.446 42.225 26.8772 35.8125C27.1116 32.2781 27.3085 18.3 27.1679 14.2781C27.0179 9.79688 26.8116 7.65 26.3616 5.85C25.8085 3.675 24.871 2.9625 23.1554 3.42188Z" fill="#F15D41"/>
<path d="M36.3741 10.2187C35.3335 10.7437 34.8179 11.5687 34.8179 12.7031C34.8179 13.8187 35.2397 14.5125 36.3835 15.2625C39.2054 17.1281 40.8554 20.4562 40.8741 24.375C40.8929 26.325 40.5647 27.6937 39.6929 29.3906C39.0085 30.7125 38.2679 31.5843 36.4585 33.2062C35.6991 33.8906 35.3897 34.8656 35.6335 35.8218C35.9241 36.9375 36.7116 37.6875 37.8272 37.8937C38.6054 38.0343 39.2616 37.8843 40.021 37.3781C40.7616 36.8906 42.6085 35.0531 43.2929 34.125C45.3647 31.3312 46.4429 28.2562 46.621 24.6375C46.7991 20.9906 45.8991 17.5125 44.0429 14.7187C43.321 13.6218 41.596 11.9062 40.4804 11.1656C39.0272 10.2 38.5679 10.0031 37.7054 9.95621C37.0116 9.92808 36.9085 9.94683 36.3741 10.2187Z" fill="#F15D41"/>
<path d="M31.9397 16.8843C30.5991 17.1562 29.6147 18.5718 29.8585 19.8937C30.0085 20.6812 30.2147 21.0468 30.9178 21.75C32.146 22.9781 32.2772 24.3375 31.2835 25.65C30.6928 26.4375 30.496 26.9343 30.496 27.7031C30.496 28.8093 31.0585 29.7375 32.0335 30.2343C32.896 30.6656 33.9272 30.6093 34.6491 30.0843C35.6147 29.3718 36.796 27.4406 37.1991 25.9218C37.4897 24.8531 37.4897 22.95 37.1991 21.8906C36.7772 20.2968 35.7553 18.6375 34.6116 17.6906C33.7116 16.9406 32.8866 16.6875 31.9397 16.8843Z" fill="#F15D41"/>
</svg>
