<svg width="41" height="40" viewBox="0 0 41 40" fill="none" xmlns="http://www.w3.org/2000/svg">
<rect x="0.5" width="40" height="40" rx="4" fill="#EAEDFF"/>
<g clip-path="url(#clip0_28_829)">
<path d="M15.1667 12.5H17.1667C18.6394 12.5 19.8333 13.6939 19.8333 15.1667V17.1667C19.8333 18.6394 18.6394 19.8333 17.1667 19.8333H15.1667C13.6939 19.8333 12.5 18.6394 12.5 17.1667V15.1667C12.5 13.6939 13.6939 12.5 15.1667 12.5Z" fill="#343B6E"/>
<path d="M23.8336 12.5H25.8336C27.3064 12.5 28.5003 13.6939 28.5003 15.1667V17.1667C28.5003 18.6394 27.3064 19.8333 25.8336 19.8333H23.8336C22.3609 19.8333 21.167 18.6394 21.167 17.1667V15.1667C21.167 13.6939 22.3609 12.5 23.8336 12.5Z" fill="#343B6E"/>
<path d="M15.1667 21.1667H17.1667C18.6394 21.1667 19.8333 22.3606 19.8333 23.8333V25.8333C19.8333 27.3061 18.6394 28.5 17.1667 28.5H15.1667C13.6939 28.5 12.5 27.3061 12.5 25.8333V23.8333C12.5 22.3606 13.6939 21.1667 15.1667 21.1667Z" fill="#343B6E"/>
<path d="M23.8336 21.1665H25.8336C27.3064 21.1665 28.5003 22.3604 28.5003 23.8332V25.8332C28.5003 27.3059 27.3064 28.4998 25.8336 28.4998H23.8336C22.3609 28.4998 21.167 27.3059 21.167 25.8332V23.8332C21.167 22.3604 22.3609 21.1665 23.8336 21.1665Z" fill="#343B6E"/>
</g>
<defs>
<clipPath id="clip0_28_829">
<rect width="16" height="16" fill="white" transform="translate(12.5 12.5)"/>
</clipPath>
</defs>
</svg>
