<svg width="41" height="40" viewBox="0 0 41 40" fill="none" xmlns="http://www.w3.org/2000/svg">
<rect x="0.5" width="40" height="40" rx="4" fill="#FFDDD7"/>
<g clip-path="url(#clip0_28_811)">
<path d="M12.8693 20.56C12.5069 20.0268 12.4345 19.3481 12.6762 18.7505C13.2164 17.6484 14.1214 16.7674 15.2375 16.2569C16.0455 15.855 16.9208 15.6058 17.8193 15.5217C17.4278 16.0034 17.0359 16.5174 16.6435 17.0637C15.8449 18.273 15.1614 19.5544 14.6018 20.8911L14.3609 21.4312C13.7575 21.3813 13.2091 21.061 12.8693 20.56ZM13.787 23.3628C13.2105 24.1588 12.7967 25.0607 12.5694 26.017C12.4276 26.6383 12.8164 27.2569 13.4378 27.3986C13.6069 27.4372 13.7825 27.4371 13.9516 27.3985C14.9063 27.1708 15.8068 26.7573 16.6018 26.1815C17.3801 25.4035 17.3805 24.1418 16.6024 23.3634C15.8244 22.5851 14.5627 22.5847 13.7843 23.3628H13.787ZM19.0535 25.3402L18.5094 25.5817V25.7768C18.5107 26.2441 18.6979 26.6917 19.0296 27.0209C19.3452 27.3278 19.7679 27.4997 20.2081 27.5C21.7721 27.4775 23.0401 26.0535 23.7057 24.7277C24.1134 23.9072 24.3635 23.0175 24.4429 22.1047C23.9563 22.5029 23.4345 22.901 22.8776 23.2991C21.6688 24.0979 20.3876 24.7812 19.0509 25.3402L19.0535 25.3402ZM28.4626 13.4633C28.3744 16.3517 26.2948 19.2163 22.1045 22.2222C20.9642 22.9613 19.7612 23.599 18.5094 24.1279V23.7543C18.5032 22.4742 17.4671 21.4381 16.187 21.4319H15.8135C16.3435 20.1801 16.9823 18.9771 17.7225 17.8368C20.721 13.6564 23.5809 11.5742 26.4647 11.48C27.9019 11.48 28.4626 12.0652 28.4626 13.4633ZM24.4813 17.1188C24.4813 16.2027 23.7386 15.4599 22.8225 15.4599C21.9063 15.4599 21.1636 16.2026 21.1636 17.1188C21.1636 18.035 21.9063 18.7777 22.8225 18.7777C23.7386 18.7777 24.4813 18.035 24.4813 17.1188Z" fill="#F15D41"/>
</g>
<defs>
<clipPath id="clip0_28_811">
<rect width="16" height="16" fill="white" transform="translate(12.5 11.5)"/>
</clipPath>
</defs>
</svg>
