<svg width="41" height="40" viewBox="0 0 41 40" fill="none" xmlns="http://www.w3.org/2000/svg">
<path d="M37.0865 14.1095C33.3778 14.1095 31.8616 11.3973 33.7056 8.07065C34.7711 6.14245 34.1359 3.68454 32.2714 2.58272L28.7266 0.485017C27.1079 -0.510862 25.018 0.0824279 24.055 1.75635L23.8296 2.15894C21.9855 5.4856 18.953 5.4856 17.0885 2.15894L16.8631 1.75635C15.941 0.0824279 13.8511 -0.510862 12.2324 0.485017L8.68766 2.58272C6.82309 3.68454 6.18791 6.16364 7.25337 8.09184C9.11794 11.3973 7.6017 14.1095 3.89305 14.1095C1.76212 14.1095 0 15.9105 0 18.1354V21.8646C0 24.0683 1.74163 25.8905 3.89305 25.8905C7.6017 25.8905 9.11794 28.6027 7.25337 31.9294C6.18791 33.8575 6.82309 36.3155 8.68766 37.4173L12.2324 39.515C13.8511 40.5109 15.941 39.9176 16.904 38.2437L17.1294 37.8411C18.9735 34.5144 22.006 34.5144 23.8706 37.8411L24.096 38.2437C25.059 39.9176 27.1489 40.5109 28.7676 39.515L32.3123 37.4173C34.1769 36.3155 34.8121 33.8364 33.7466 31.9294C31.8821 28.6027 33.3983 25.8905 37.1069 25.8905C39.2379 25.8905 41 24.0895 41 21.8646V18.1354C40.9795 15.9317 39.2379 14.1095 37.0865 14.1095ZM20.4898 26.8864C16.8221 26.8864 13.8306 23.7928 13.8306 20C13.8306 16.2072 16.8221 13.1136 20.4898 13.1136C24.1574 13.1136 27.1489 16.2072 27.1489 20C27.1489 23.7928 24.1574 26.8864 20.4898 26.8864Z" fill="#343B6E"/>
</svg>
