<svg width="27" height="27" viewBox="0 0 27 27" fill="none" xmlns="http://www.w3.org/2000/svg">
<path d="M18.2138 2.25H8.78625C4.69125 2.25 2.25 4.69125 2.25 8.78625V18.2025C2.25 22.3088 4.69125 24.75 8.78625 24.75H18.2025C22.2975 24.75 24.7387 22.3088 24.7387 18.2138V8.78625C24.75 4.69125 22.3088 2.25 18.2138 2.25ZM11.8012 18.81C11.4187 19.1925 10.9125 19.4513 10.2937 19.53L8.775 19.6988C7.9425 19.7888 7.23375 19.08 7.32375 18.2362L7.4925 16.7063C7.63875 15.345 8.775 14.4788 9.97875 14.4563C10.0912 14.445 10.2262 14.4562 10.35 14.4675C10.8787 14.535 11.385 14.7825 11.8125 15.1988C12.2288 15.615 12.465 16.11 12.5325 16.6163C12.5438 16.74 12.555 16.8638 12.555 16.9763C12.555 17.6738 12.2962 18.315 11.8012 18.81ZM19.62 8.49375C18.81 10.5188 16.9538 13.1738 15.1875 14.9062C14.9287 13.3088 13.6575 12.0488 12.0375 11.8238C13.77 10.0463 16.4475 8.1675 18.4838 7.34625C18.8438 7.21125 19.2038 7.3125 19.4288 7.5375C19.6538 7.785 19.7663 8.13375 19.62 8.49375Z" fill="#999999"/>
</svg>
