<svg width="25" height="25" viewBox="0 0 25 25" fill="none" xmlns="http://www.w3.org/2000/svg">
<path d="M23.3494 7.51252L15.3 0.962522C13.7269 -0.312477 11.2691 -0.324977 9.70835 0.950022L1.65891 7.51252C0.503717 8.45002 -0.196769 10.325 0.0490153 11.8L1.59746 21.225C1.95385 23.3375 3.88326 25 5.98471 25H19.0113C21.0882 25 23.0545 23.3 23.4108 21.2125L24.9593 11.7875C25.1805 10.325 24.48 8.45002 23.3494 7.51252ZM13.4197 20C13.4197 20.5125 13.0019 20.9375 12.498 20.9375C11.9942 20.9375 11.5763 20.5125 11.5763 20V16.25C11.5763 15.7375 11.9942 15.3125 12.498 15.3125C13.0019 15.3125 13.4197 15.7375 13.4197 16.25V20Z" fill="#343B6E"/>
</svg>
