<svg width="40" height="40" viewBox="0 0 40 40" fill="none" xmlns="http://www.w3.org/2000/svg">
<rect width="40" height="40" rx="4" fill="#E8FFE8"/>
<g clip-path="url(#clip0_28_819)">
<path d="M27.5004 19.5002C27.5004 18.3695 26.927 17.3728 26.055 16.7848C26.2557 15.7528 25.9564 14.6428 25.157 13.8428C24.3577 13.0435 23.2477 12.7442 22.215 12.9448C21.627 12.0728 20.6304 11.4995 19.4997 11.4995C18.369 11.4995 17.3724 12.0728 16.7844 12.9448C15.7524 12.7442 14.6417 13.0435 13.8424 13.8428C13.043 14.6422 12.7437 15.7522 12.9444 16.7848C12.0724 17.3728 11.499 18.3695 11.499 19.5002C11.499 20.6308 12.0724 21.6275 12.9444 22.2155C12.7437 23.2475 13.043 24.3582 13.8424 25.1575C14.6417 25.9568 15.7517 26.2562 16.7844 26.0555C17.3724 26.9275 18.369 27.5008 19.4997 27.5008C20.6304 27.5008 21.627 26.9275 22.215 26.0555C23.247 26.2562 24.3577 25.9568 25.157 25.1575C25.9564 24.3582 26.2557 23.2482 26.055 22.2155C26.927 21.6275 27.5004 20.6308 27.5004 19.5002ZM19.4397 21.7795C19.1817 22.0375 18.8424 22.1662 18.5017 22.1662C18.161 22.1662 17.8184 22.0362 17.5577 21.7762L15.703 19.9788L16.6317 19.0208L18.4937 20.8255L22.3664 17.0248L23.3024 17.9748L19.4397 21.7795Z" fill="#11C711"/>
</g>
<defs>
<clipPath id="clip0_28_819">
<rect width="16" height="16" fill="white" transform="translate(11.5 11.5)"/>
</clipPath>
</defs>
</svg>
