<svg width="46" height="46" viewBox="0 0 46 46" fill="none" xmlns="http://www.w3.org/2000/svg">
<rect width="46" height="46" rx="10" fill="black"/>
<path d="M35.623 21.5352C35.623 22.6016 35.5 23.6328 35.2539 24.6289C35.0078 25.6133 34.6504 26.5391 34.1816 27.4062C33.7246 28.2734 33.1621 29.0703 32.4941 29.7969C31.8379 30.5117 31.0938 31.127 30.2617 31.6426C29.4414 32.1582 28.5449 32.5625 27.5723 32.8555C26.5996 33.1367 25.5684 33.2773 24.4785 33.2773C23.4238 33.2773 22.416 33.1426 21.4551 32.873C20.5059 32.6035 19.6152 32.2285 18.7832 31.748C17.9512 31.2559 17.1953 30.6699 16.5156 29.9902C15.8477 29.2988 15.2734 28.5371 14.793 27.7051C14.3242 26.8613 13.9551 25.959 13.6855 24.998C13.4277 24.0371 13.2988 23.0352 13.2988 21.9922C13.2988 20.9727 13.4219 19.9766 13.668 19.0039C13.9141 18.0195 14.2656 17.0938 14.7227 16.2266C15.1914 15.3594 15.7539 14.5625 16.4102 13.8359C17.0664 13.1094 17.7988 12.4824 18.6074 11.9551C19.4277 11.4277 20.3125 11.0176 21.2617 10.7246C22.2109 10.4316 23.2129 10.2852 24.2676 10.2852C25.9668 10.2852 27.5137 10.5488 28.9082 11.0762C30.3145 11.6035 31.5098 12.3594 32.4941 13.3438C33.4902 14.3164 34.2578 15.5 34.7969 16.8945C35.3477 18.2773 35.623 19.8242 35.623 21.5352ZM27.8184 21.9922C27.8184 21.4883 27.7422 21.002 27.5898 20.5332C27.4492 20.0527 27.2383 19.6309 26.957 19.2676C26.6758 18.8926 26.3242 18.5938 25.9023 18.3711C25.4922 18.1367 25.0176 18.0195 24.4785 18.0195C23.9277 18.0195 23.4355 18.1191 23.002 18.3184C22.5684 18.5176 22.1934 18.793 21.877 19.1445C21.5723 19.4844 21.3379 19.8887 21.1738 20.3574C21.0098 20.8145 20.9277 21.3008 20.9277 21.8164C20.9277 22.3086 20.998 22.8008 21.1387 23.293C21.2793 23.7852 21.4902 24.2305 21.7715 24.6289C22.0527 25.0273 22.3984 25.3496 22.8086 25.5957C23.2305 25.8418 23.7168 25.9648 24.2676 25.9648C24.8184 25.9648 25.3105 25.8594 25.7441 25.6484C26.1895 25.4258 26.5645 25.1328 26.8691 24.7695C27.1738 24.3945 27.4082 23.9668 27.5723 23.4863C27.7363 23.0059 27.8184 22.5078 27.8184 21.9922Z" fill="#B3D8A8"/>
</svg>
