<svg width="46" height="46" viewBox="0 0 46 46" fill="none" xmlns="http://www.w3.org/2000/svg">
<rect width="46" height="46" rx="10" fill="black"/>
<path d="M34.498 18.0547C34.498 18.9688 34.416 19.8008 34.252 20.5508C34.0996 21.2891 33.8535 21.9688 33.5137 22.5898C33.1738 23.2109 32.7344 23.7852 32.1953 24.3125C31.6562 24.8398 31.0059 25.3438 30.2441 25.8242L34.4277 33.2773L26.5176 34.8242L23.8105 27.3359L21.6309 27.4062L21.3145 34.7188H13.7559C13.8145 32.0469 13.8672 29.3867 13.9141 26.7383C13.9727 24.0898 14.0371 21.4297 14.1074 18.7578C14.1309 17.4102 14.1543 16.0742 14.1777 14.75C14.2012 13.4258 14.248 12.0898 14.3184 10.7422C15.1387 10.4375 15.9473 10.1855 16.7441 9.98633C17.541 9.78711 18.3379 9.63477 19.1348 9.5293C19.9434 9.41211 20.7578 9.33594 21.5781 9.30078C22.4102 9.25391 23.2598 9.23047 24.127 9.23047C25.4629 9.23047 26.752 9.41797 27.9941 9.79297C29.248 10.1563 30.3555 10.707 31.3164 11.4453C32.2773 12.1836 33.0449 13.1035 33.6191 14.2051C34.2051 15.3066 34.498 16.5898 34.498 18.0547ZM26.623 18.6172C26.623 18.125 26.5527 17.6738 26.4121 17.2637C26.2832 16.8535 26.084 16.502 25.8145 16.209C25.5566 15.9043 25.2285 15.6699 24.8301 15.5059C24.4434 15.3301 23.9863 15.2422 23.459 15.2422C23.2246 15.2422 22.9961 15.2598 22.7734 15.2949C22.5508 15.3184 22.334 15.3594 22.123 15.418L21.8418 21.957H22.2637C22.7676 21.957 23.2773 21.8926 23.793 21.7637C24.3203 21.6348 24.7891 21.4355 25.1992 21.166C25.6211 20.8965 25.9609 20.5508 26.2188 20.1289C26.4883 19.707 26.623 19.2031 26.623 18.6172Z" fill="#B3D8A8"/>
</svg>
