<svg width="46" height="46" viewBox="0 0 46 46" fill="none" xmlns="http://www.w3.org/2000/svg">
<rect width="46" height="46" rx="10" fill="black"/>
<path d="M31.3164 10.2852L30.332 17.7031C29.9922 17.6094 29.6523 17.5449 29.3125 17.5098C28.9727 17.4746 28.6328 17.457 28.293 17.457C27.4258 17.457 26.5996 17.5742 25.8145 17.8086C25.0293 18.0312 24.332 18.377 23.7227 18.8457C23.125 19.3145 22.6445 19.9004 22.2812 20.6035C21.9297 21.3066 21.7539 22.1328 21.7539 23.082C21.7539 23.6914 21.8477 24.2188 22.0352 24.6641C22.2344 25.1094 22.5098 25.4785 22.8613 25.7715C23.2129 26.0645 23.6289 26.2812 24.1094 26.4219C24.5898 26.5625 25.1172 26.6328 25.6914 26.6328C26.125 26.6328 26.5762 26.5859 27.0449 26.4922C27.5137 26.3984 27.9766 26.2754 28.4336 26.123C28.8906 25.9707 29.3359 25.7949 29.7695 25.5957C30.2031 25.3965 30.6016 25.1914 30.9648 24.9805L30.2617 33.2422C29.8047 33.4766 29.3066 33.6875 28.7676 33.875C28.2402 34.0508 27.6953 34.209 27.1328 34.3496C26.5703 34.4785 26.0078 34.5781 25.4453 34.6484C24.8828 34.7188 24.3438 34.7539 23.8281 34.7539C22.3398 34.7539 20.9512 34.4785 19.6621 33.9277C18.373 33.377 17.2539 32.6211 16.3047 31.6602C15.3555 30.6992 14.6055 29.5684 14.0547 28.2676C13.5156 26.9551 13.2461 25.543 13.2461 24.0312C13.2461 22.0273 13.5332 20.1406 14.1074 18.3711C14.6816 16.5898 15.5254 15.0312 16.6387 13.6953C17.752 12.3594 19.1289 11.3047 20.7695 10.5312C22.4219 9.75781 24.3203 9.37109 26.4648 9.37109C27.2734 9.37109 28.0996 9.43555 28.9434 9.56445C29.7988 9.69336 30.5898 9.93359 31.3164 10.2852Z" fill="#B3D8A8"/>
</svg>
