<svg width="46" height="46" viewBox="0 0 46 46" fill="none" xmlns="http://www.w3.org/2000/svg">
<rect width="46" height="46" rx="10" fill="black"/>
<path d="M33.5137 20.7969C33.5137 21.8164 33.4434 22.8359 33.3027 23.8555C31.2988 23.9844 29.3066 24.1953 27.3262 24.4883C25.3457 24.7695 23.3652 25.0508 21.3848 25.332C21.6895 26.1758 22.1641 26.8496 22.8086 27.3535C23.4648 27.8574 24.2441 28.1094 25.1465 28.1094C25.6152 28.1094 26.125 28.0215 26.6758 27.8457C27.2383 27.6699 27.7949 27.4531 28.3457 27.1953C28.8965 26.9258 29.4238 26.6387 29.9277 26.334C30.4316 26.0293 30.8652 25.7539 31.2285 25.5078L30.3848 33.4883C29.9277 33.8398 29.4297 34.1387 28.8906 34.3848C28.3633 34.6309 27.8125 34.8301 27.2383 34.9824C26.6641 35.1348 26.084 35.2461 25.498 35.3164C24.9121 35.3867 24.3379 35.4219 23.7754 35.4219C22.6152 35.4219 21.5547 35.2637 20.5938 34.9473C19.6328 34.6309 18.7598 34.1914 17.9746 33.6289C17.2012 33.0547 16.5215 32.3809 15.9355 31.6074C15.3496 30.834 14.8633 29.9902 14.4766 29.0762C14.0898 28.1621 13.7969 27.1953 13.5977 26.1758C13.3984 25.1562 13.2988 24.125 13.2988 23.082C13.2988 21.9922 13.3984 20.9023 13.5977 19.8125C13.7969 18.7227 14.0957 17.6738 14.4941 16.666C14.9043 15.6582 15.4141 14.7266 16.0234 13.8711C16.6445 13.0039 17.3652 12.248 18.1855 11.6035C19.0059 10.959 19.9316 10.4551 20.9629 10.0918C22.0059 9.72852 23.1543 9.54688 24.4082 9.54688C25.4512 9.54688 26.4004 9.69336 27.2559 9.98633C28.123 10.2676 28.8906 10.666 29.5586 11.1816C30.2383 11.6855 30.8242 12.2891 31.3164 12.9922C31.8203 13.6953 32.2305 14.4688 32.5469 15.3125C32.875 16.1445 33.1152 17.0293 33.2676 17.9668C33.4316 18.8926 33.5137 19.8359 33.5137 20.7969ZM26.4824 19.8828C26.4824 19.5547 26.4473 19.2207 26.377 18.8809C26.3066 18.5293 26.1895 18.2129 26.0254 17.9316C25.873 17.6504 25.668 17.4219 25.4102 17.2461C25.1523 17.0586 24.8301 16.9648 24.4434 16.9648C23.9746 16.9648 23.5586 17.0938 23.1953 17.3516C22.8438 17.5977 22.5391 17.9141 22.2812 18.3008C22.0234 18.6758 21.8125 19.0859 21.6484 19.5312C21.4844 19.9766 21.3613 20.3867 21.2793 20.7617L26.4824 20.2695V19.8828Z" fill="#B3D8A8"/>
</svg>
