<svg width="41" height="40" viewBox="0 0 41 40" fill="none" xmlns="http://www.w3.org/2000/svg">
<rect x="0.761719" y="0.5" width="39" height="39" rx="7.5" fill="#FFFADD"/>
<rect x="0.761719" y="0.5" width="39" height="39" rx="7.5" stroke="#FFC443"/>
<g clip-path="url(#clip0_61_563)">
<path d="M21.6551 22.6667H22.2617C26.6904 22.6667 28.2617 20.3334 28.2617 18.3334C28.2611 17.7914 28.0717 17.2665 27.7263 16.8489C27.3808 16.4312 26.9007 16.1469 26.3684 16.0447C26.475 15.8293 26.5662 15.6065 26.6411 15.378C26.7574 14.988 26.7803 14.576 26.7078 14.1755C26.6353 13.775 26.4694 13.3972 26.2237 13.0727C25.9758 12.7383 25.6526 12.467 25.2804 12.2806C24.9082 12.0943 24.4973 11.9982 24.0811 12H16.4424C16.026 11.9984 15.615 12.0948 15.2427 12.2815C14.8705 12.4682 14.5474 12.7399 14.2997 13.0747C14.054 13.3992 13.8882 13.777 13.8157 14.1775C13.7431 14.578 13.766 14.99 13.8824 15.38C13.9573 15.6085 14.0484 15.8313 14.1551 16.0467C13.6231 16.1488 13.1433 16.4329 12.7978 16.8501C12.4524 17.2673 12.2628 17.7917 12.2617 18.3334C12.2617 20.3334 13.8331 22.6667 18.2617 22.6667H18.8684C18.9072 22.8691 18.9273 23.0746 18.9284 23.2807V25.3334C18.9398 25.5114 18.9132 25.6899 18.8502 25.8568C18.7873 26.0238 18.6895 26.1754 18.5633 26.3016C18.4371 26.4278 18.2855 26.5256 18.1185 26.5886C17.9516 26.6515 17.7731 26.6781 17.5951 26.6667H16.2617C16.0849 26.6667 15.9153 26.7369 15.7903 26.862C15.6653 26.987 15.5951 27.1565 15.5951 27.3334C15.5951 27.5102 15.6653 27.6797 15.7903 27.8048C15.9153 27.9298 16.0849 28 16.2617 28H24.2617C24.4385 28 24.6081 27.9298 24.7331 27.8048C24.8581 27.6797 24.9284 27.5102 24.9284 27.3334C24.9284 27.1565 24.8581 26.987 24.7331 26.862C24.6081 26.7369 24.4385 26.6667 24.2617 26.6667H22.9324C22.754 26.6785 22.5752 26.6522 22.4079 26.5894C22.2405 26.5266 22.0885 26.4289 21.9619 26.3027C21.8354 26.1765 21.7372 26.0248 21.6739 25.8576C21.6106 25.6905 21.5838 25.5117 21.5951 25.3334V23.28C21.5962 23.0742 21.6163 22.8689 21.6551 22.6667ZM22.7457 20.766C23.888 19.7541 24.8763 18.5806 25.6791 17.2827C25.7581 17.3154 25.8428 17.3326 25.9284 17.3334C26.1936 17.3334 26.448 17.4387 26.6355 17.6263C26.823 17.8138 26.9284 18.0681 26.9284 18.3334C26.9284 19.784 25.7024 21.3334 22.2617 21.3334H22.2244C22.3747 21.124 22.5497 20.9335 22.7457 20.766ZM18.2617 21.3334C14.8211 21.3334 13.5951 19.784 13.5951 18.3334C13.5951 18.0681 13.7004 17.8138 13.8879 17.6263C14.0755 17.4387 14.3298 17.3334 14.5951 17.3334C14.6809 17.3327 14.7658 17.3155 14.8451 17.2827C15.6478 18.5806 16.6361 19.7541 17.7784 20.766C17.9741 20.9335 18.1489 21.124 18.2991 21.3334H18.2617Z" fill="#FFC443"/>
</g>
<defs>
<clipPath id="clip0_61_563">
<rect width="16" height="16" fill="white" transform="translate(12.2617 12)"/>
</clipPath>
</defs>
</svg>
