<svg width="40" height="40" viewBox="0 0 40 40" fill="none" xmlns="http://www.w3.org/2000/svg">
<rect width="40" height="40" rx="4" fill="#FFFADD"/>
<g clip-path="url(#clip0_28_841)">
<path d="M20.8933 23.1667H21.5C25.9287 23.1667 27.5 20.8334 27.5 18.8334C27.4993 18.2914 27.31 17.7665 26.9645 17.3489C26.6191 16.9312 26.139 16.6469 25.6067 16.5447C25.7133 16.3293 25.8045 16.1065 25.8793 15.878C25.9957 15.488 26.0186 15.076 25.9461 14.6755C25.8736 14.275 25.7077 13.8972 25.462 13.5727C25.2141 13.2383 24.8909 12.967 24.5187 12.7806C24.1465 12.5943 23.7356 12.4982 23.3193 12.5H15.6807C15.2642 12.4984 14.8533 12.5948 14.481 12.7815C14.1088 12.9682 13.7857 13.2399 13.538 13.5747C13.2923 13.8992 13.1264 14.277 13.0539 14.6775C12.9814 15.078 13.0043 15.49 13.1207 15.88C13.1955 16.1085 13.2867 16.3313 13.3933 16.5467C12.8614 16.6488 12.3815 16.9329 12.0361 17.3501C11.6906 17.7673 11.5011 18.2917 11.5 18.8334C11.5 20.8334 13.0713 23.1667 17.5 23.1667H18.1067C18.1455 23.3691 18.1656 23.5746 18.1667 23.7807V25.8334C18.1781 26.0114 18.1515 26.1899 18.0885 26.3568C18.0256 26.5238 17.9278 26.6754 17.8016 26.8016C17.6754 26.9278 17.5238 27.0256 17.3568 27.0886C17.1899 27.1515 17.0114 27.1781 16.8333 27.1667H15.5C15.3232 27.1667 15.1536 27.2369 15.0286 27.362C14.9036 27.487 14.8333 27.6565 14.8333 27.8334C14.8333 28.0102 14.9036 28.1797 15.0286 28.3048C15.1536 28.4298 15.3232 28.5 15.5 28.5H23.5C23.6768 28.5 23.8464 28.4298 23.9714 28.3048C24.0964 28.1797 24.1667 28.0102 24.1667 27.8334C24.1667 27.6565 24.0964 27.487 23.9714 27.362C23.8464 27.2369 23.6768 27.1667 23.5 27.1667H22.1707C21.9923 27.1785 21.8135 27.1522 21.6462 27.0894C21.4788 27.0266 21.3268 26.9289 21.2002 26.8027C21.0737 26.6765 20.9755 26.5248 20.9122 26.3576C20.8489 26.1905 20.822 26.0117 20.8333 25.8334V23.78C20.8344 23.5742 20.8545 23.3689 20.8933 23.1667ZM21.984 21.266C23.1263 20.2541 24.1145 19.0806 24.9173 17.7827C24.9964 17.8154 25.0811 17.8326 25.1667 17.8334C25.4319 17.8334 25.6862 17.9387 25.8738 18.1263C26.0613 18.3138 26.1667 18.5681 26.1667 18.8334C26.1667 20.284 24.9407 21.8334 21.5 21.8334H21.4627C21.613 21.624 21.788 21.4335 21.984 21.266ZM17.5 21.8334C14.0593 21.8334 12.8333 20.284 12.8333 18.8334C12.8333 18.5681 12.9387 18.3138 13.1262 18.1263C13.3138 17.9387 13.5681 17.8334 13.8333 17.8334C13.9192 17.8327 14.004 17.8155 14.0833 17.7827C14.8861 19.0806 15.8744 20.2541 17.0167 21.266C17.2124 21.4335 17.3872 21.624 17.5373 21.8334H17.5Z" fill="#FFC443"/>
</g>
<defs>
<clipPath id="clip0_28_841">
<rect width="16" height="16" fill="white" transform="translate(11.5 12.5)"/>
</clipPath>
</defs>
</svg>
