<svg width="28" height="28" viewBox="0 0 28 28" fill="none" xmlns="http://www.w3.org/2000/svg">
<path d="M18.8883 2.33331H9.11158C4.86492 2.33331 2.33325 4.86498 2.33325 9.11165V18.8766C2.33325 23.135 4.86492 25.6666 9.11158 25.6666H18.8766C23.1233 25.6666 25.6549 23.135 25.6549 18.8883V9.11165C25.6666 4.86498 23.1349 2.33331 18.8883 2.33331ZM9.33325 15.1666C8.67992 15.1666 8.16659 14.6416 8.16659 14C8.16659 13.3583 8.69159 12.8333 9.33325 12.8333C9.97492 12.8333 10.4999 13.3583 10.4999 14C10.4999 14.6416 9.98659 15.1666 9.33325 15.1666ZM13.9999 15.1666C13.3466 15.1666 12.8333 14.6416 12.8333 14C12.8333 13.3583 13.3583 12.8333 13.9999 12.8333C14.6416 12.8333 15.1666 13.3583 15.1666 14C15.1666 14.6416 14.6533 15.1666 13.9999 15.1666ZM18.6666 15.1666C18.0133 15.1666 17.4999 14.6416 17.4999 14C17.4999 13.3583 18.0249 12.8333 18.6666 12.8333C19.3083 12.8333 19.8333 13.3583 19.8333 14C19.8333 14.6416 19.3199 15.1666 18.6666 15.1666Z" fill="#999999"/>
</svg>
